<svg width="58" height="62" viewBox="0 0 58 62" fill="none" xmlns="http://www.w3.org/2000/svg">
<path d="M26.4304 12.6437H26.2661V15.4437H43.983V45.7189H26.2661V48.5189H26.4304V60.1934H29.2304V48.5189H35.1096V57.9195H37.9096V48.5189H46.783V41.2723H55.3485V38.7523H46.783V31.3588H57.5207V28.8388H46.783V21.5976H55.3485V19.0776H46.783V12.6437H37.9096V3.27145H35.1096V12.6437H29.2304V1.90576H26.4304V12.6437Z" fill="#FECE00"/>
<path d="M32.0205 26.041H26.2661V22.681H35.3805V38.4821H26.2661V35.1221H32.0205V26.041Z" fill="#FECE00"/>
<path fill-rule="evenodd" clip-rule="evenodd" d="M24.1597 59.1799V61.0408H27.7997V0.959473H24.1597V2.84441H10.9942V25.5162L17.4307 33.5653H24.1597V38.6466H8.03254L0.47998 45.5238V59.1799H24.1597ZM24.1597 55.8199V42.0066H9.33313L3.83998 47.0086V55.8199H24.1597ZM24.1597 30.2053V6.20442H14.3542V24.338L19.046 30.2053H24.1597Z" fill="#F8F9FC"/>
</svg>
