<svg width="114" height="106" viewBox="0 0 114 106" fill="none" xmlns="http://www.w3.org/2000/svg">
<path d="M59.07 41.4855H67.1333V53.2301H70.3333V38.2855H59.07V41.4855Z" fill="#F8F9FC"/>
<path d="M44.5645 56.4512V62.6739H57.6895V65.8739H41.3645V56.4512H44.5645Z" fill="#F8F9FC"/>
<path fill-rule="evenodd" clip-rule="evenodd" d="M58.7691 0.251953V25.0359H72.298V5.77383H76.298V25.0359H88.9522V81.0122H76.298V100.227H72.298V81.0122H58.7691V105.748H54.7691V81.0122H41.241V100.227H37.241V81.0122H24.991V66.2738H8.91289V62.2738H24.991V54.7703H0.169922V50.7703H24.991V43.266H8.91289V39.266H24.991V25.0359H37.241V5.77383H41.241V25.0359H54.7691V0.251953H58.7691ZM29.791 29.8359V76.2122H84.1522V29.8359H29.791Z" fill="#F8F9FC"/>
<path d="M113.829 50.7703H88.98V54.7703H113.829V50.7703Z" fill="#F8F9FC"/>
<path d="M105.086 62.2738H88.98L88.98 66.2738H105.086V62.2738Z" fill="#F8F9FC"/>
<path d="M105.086 39.266H88.98L88.98 43.266H105.086V39.266Z" fill="#F8F9FC"/>
<path fill-rule="evenodd" clip-rule="evenodd" d="M46.9986 39.4486L52.9484 44.342L47.7669 50.6069L41.8138 45.7108C41.7877 46.0894 41.7922 46.4755 41.8297 46.8665C42.1981 50.7023 45.6165 53.5184 49.4717 53.1481C50.1788 53.0802 50.8491 52.9104 51.4705 52.6555L52.1894 52.3606L69.0528 66.2296L71.757 62.96L55.1457 49.2983L55.4378 48.4455C55.749 47.537 55.8765 46.5487 55.7783 45.5268C55.4099 41.691 51.9916 38.8749 48.1364 39.2452C47.7454 39.2827 47.3654 39.3515 46.9986 39.4486ZM43.855 37.9827C45.0475 37.2662 46.4145 36.7986 47.8878 36.6571C53.1656 36.1502 57.8601 40.0063 58.3664 45.2783C58.4697 46.3537 58.3903 47.4067 58.153 48.4052L75.4221 62.608L69.4038 69.8846L51.7093 55.332C51.0738 55.5328 50.4084 55.6701 49.7202 55.7362C44.4424 56.2431 39.748 52.387 39.2416 47.115C39.1004 45.6441 39.3009 44.2154 39.7796 42.9106L40.4108 41.1905L47.4159 46.9518L49.2833 44.694L42.2763 38.9312L43.855 37.9827Z" fill="#FECE00"/>
</svg>
