<svg width="70" height="56" viewBox="0 0 70 56" fill="none" xmlns="http://www.w3.org/2000/svg">
<path fill-rule="evenodd" clip-rule="evenodd" d="M17.3705 4.19995C17.0879 4.19995 16.8078 4.21031 16.5305 4.23067C10.9524 4.6401 6.49825 9.09427 6.08882 14.6723C6.06846 14.9496 6.05811 15.2298 6.05811 15.5123C6.05811 15.7948 6.06846 16.075 6.08882 16.3523C6.49825 21.9303 10.9524 26.3845 16.5305 26.7939C16.8078 26.8143 17.0879 26.8246 17.3705 26.8246C17.653 26.8246 17.9331 26.8143 18.2105 26.7939C23.7885 26.3845 28.2426 21.9303 28.6521 16.3523C28.6724 16.075 28.6828 15.7948 28.6828 15.5123C28.6828 15.2298 28.6724 14.9496 28.6521 14.6723C28.2426 9.09427 23.7885 4.6401 18.2105 4.23067C17.9331 4.21031 17.653 4.19995 17.3705 4.19995ZM14.0536 6.46625C13.2376 6.76555 12.4733 7.17211 11.7779 7.66886C12.0845 7.86298 12.402 8.04159 12.7291 8.2036C13.1252 7.56293 13.5701 6.98085 14.0536 6.46625ZM11.9467 9.69074C11.4272 9.43121 10.9288 9.13558 10.455 8.80716C8.95592 10.353 7.97054 12.3998 7.77423 14.6723H10.7865C10.8799 12.8453 11.2961 11.1598 11.9467 9.69074ZM12.4687 14.6723C12.561 13.0493 12.9357 11.5876 13.4972 10.3349C14.4602 10.6586 15.477 10.8649 16.5305 10.9369V14.6723H12.4687ZM10.7923 16.3523H7.77423C7.97742 18.7044 9.02596 20.8148 10.6145 22.3781C11.0791 22.0668 11.5665 21.7867 12.0735 21.5408C11.3629 20.0214 10.9026 18.2615 10.7923 16.3523ZM13.634 20.9139C13.0094 19.6112 12.5853 18.0703 12.475 16.3523H16.5305V20.3571C15.5268 20.4257 14.5563 20.6162 13.634 20.9139ZM12.8875 23.0135C12.5774 23.1607 12.2756 23.3226 11.9832 23.4984C12.64 23.9424 13.3545 24.3074 14.1131 24.5799C13.6703 24.1121 13.2592 23.5876 12.8875 23.0135ZM16.5305 24.4546C15.7978 23.9499 15.1048 23.2572 14.5048 22.4052C15.1563 22.2203 15.8337 22.0969 16.5305 22.0416V24.4546ZM18.2105 24.436C18.935 23.9316 19.62 23.2433 20.2137 22.3988C19.5691 22.2175 18.8992 22.0963 18.2105 22.0416V24.436ZM18.2105 20.3571C19.2057 20.4251 20.1682 20.613 21.0836 20.9064C21.7062 19.6053 22.1289 18.0671 22.2389 16.3523H18.2105V20.3571ZM18.2105 14.6723H22.2452C22.1532 13.0527 21.7799 11.5937 21.2203 10.3428C20.2642 10.6619 19.2554 10.8655 18.2105 10.9369V14.6723ZM18.2105 9.2523C18.9651 9.19245 19.6971 9.05266 20.3981 8.84136C19.7638 7.88273 19.0113 7.11029 18.2105 6.55895V9.2523ZM16.5305 6.5405C15.7214 7.09171 14.9608 7.86836 14.3204 8.83457C15.0282 9.04967 15.7677 9.19182 16.5305 9.2523V6.5405ZM20.6463 6.45132C21.1378 6.97231 21.5897 7.56289 21.9912 8.21379C22.3256 8.04908 22.6499 7.86705 22.963 7.66885C22.256 7.1638 21.4778 6.75197 20.6463 6.45132ZM24.2859 8.80715C23.8054 9.14022 23.2996 9.43956 22.7721 9.70173C23.42 11.1682 23.8343 12.8499 23.9274 14.6723H26.9667C26.7704 12.3998 25.785 10.353 24.2859 8.80715ZM26.9667 16.3523H23.9217C23.8116 18.2571 23.3532 20.0132 22.6455 21.5302C23.1604 21.7786 23.6551 22.0623 24.1264 22.3781C25.7149 20.8148 26.7635 18.7044 26.9667 16.3523ZM22.7577 23.4984C22.4588 23.3187 22.1501 23.1535 21.8328 23.0038C21.4556 23.5876 21.0376 24.1203 20.5871 24.5945C21.3609 24.3204 22.0892 23.9503 22.7577 23.4984Z" fill="#FECE00"/>
<path fill-rule="evenodd" clip-rule="evenodd" d="M37.8965 8.52455C35.0661 8.52455 32.4884 9.72992 30.73 11.5997L28.2824 9.29779C30.6558 6.77408 34.1104 5.16455 37.8965 5.16455C42.3234 5.16455 46.2873 7.44525 48.7195 10.8447C50.3357 10.2818 52.0741 10.0078 53.8451 10.0078C62.6426 10.0078 69.7356 17.2399 69.7356 26.0935C69.7356 34.9508 62.6361 42.1791 53.7983 42.1791C53.1255 42.1791 52.4651 42.1261 51.8307 42.0442C49.654 45.2155 46.0317 47.2735 41.8988 47.2735C40.5698 47.2735 39.3215 47.045 38.1724 46.6755C35.8273 50.7475 31.4404 53.4801 26.4046 53.4801C21.052 53.4801 16.4016 50.3887 14.2075 45.8661C13.7861 45.8984 13.3749 45.9075 12.9764 45.9075C5.96266 45.9075 0.264526 40.1729 0.264526 33.0507C0.264526 28.2908 2.83538 24.1511 6.62838 21.9166L8.33382 24.8116C5.5215 26.4684 3.62453 29.5315 3.62453 33.0507C3.62453 38.3471 7.84815 42.5475 12.9764 42.5475C13.7134 42.5475 14.3131 42.5098 14.8779 42.382L16.3227 42.0549L16.828 43.4473C18.2442 47.3492 22.0043 50.1201 26.4046 50.1201C30.6275 50.1201 34.2473 47.569 35.8079 43.9009L36.4823 42.3158L38.0501 43.0297C39.2397 43.5715 40.531 43.9135 41.8988 43.9135C45.1873 43.9135 48.0236 42.1158 49.5168 39.4022L50.0995 38.3432L51.2889 38.5591C52.1466 38.7149 52.9859 38.8191 53.7983 38.8191C60.7438 38.8191 66.3756 33.132 66.3756 26.0935C66.3756 19.0511 60.7428 13.3678 53.8451 13.3678C51.997 13.3678 50.2652 13.738 48.7813 14.446L47.3633 15.1225L46.5934 13.753C44.8406 10.635 41.5357 8.52455 37.8965 8.52455Z" fill="#F8F9FC"/>
</svg>
