<svg width="58" height="56" viewBox="0 0 58 56" fill="none" xmlns="http://www.w3.org/2000/svg">
<path fill-rule="evenodd" clip-rule="evenodd" d="M44.7289 45.4513L39.9516 40.9993H9.23506L4.32317 45.4739V52.64H44.7289V45.4513ZM48.0888 43.9896L41.2745 37.6393H7.93408L0.963165 43.9896V56H48.0888V43.9896Z" fill="#F8F9FC"/>
<path fill-rule="evenodd" clip-rule="evenodd" d="M29.2543 25.405L33.7125 20.2064V3.36H15.3396V20.2064L19.7977 25.405H29.2543ZM11.9796 21.4497L18.2528 28.765H30.7992L37.0725 21.4497V0H11.9796V21.4497Z" fill="#F8F9FC"/>
<path fill-rule="evenodd" clip-rule="evenodd" d="M57.0364 22.5518L36.3081 12.6382L41.6506 34.2402L45.5058 28.5334L51.8596 36.891L56.8574 33.0944L56.8572 33.0942L50.5036 24.7367L57.0364 22.5518ZM53.5219 32.6395L46.5989 23.533L50.7024 22.1606L39.8287 16.9601L42.6755 28.4713L45.3917 24.4507L52.3145 33.5568L53.5219 32.6395Z" fill="#FECE00"/>
</svg>
