<svg width="56" height="56" viewBox="0 0 56 56" fill="none" xmlns="http://www.w3.org/2000/svg">
<path fill-rule="evenodd" clip-rule="evenodd" d="M8.56604 56V0H39.4004V9.09742H36.0404V5.36967H11.926V47.1866H36.0404V44.1118H39.4004V56H8.56604ZM23.9848 53.1805C25.1396 53.1805 26.0757 52.2444 26.0757 51.0896C26.0757 49.9349 25.1396 48.9988 23.9848 48.9988C22.8301 48.9988 21.8939 49.9349 21.8939 51.0896C21.8939 52.2444 22.8301 53.1805 23.9848 53.1805Z" fill="#F8F9FC"/>
<path fill-rule="evenodd" clip-rule="evenodd" d="M31.1554 9.55078C36.6978 9.55078 41.2888 13.6239 42.0982 18.94C42.1066 18.9948 42.1145 19.0498 42.1221 19.1049H42.8151L43.418 15.5586L49.8906 12.7077L50.7936 14.7576L45.4242 17.1226L42.4893 34.3847H40.4227L41.9721 38.7128H40.2284C40.4043 39.0814 40.5027 39.494 40.5027 39.9296C40.5027 41.4919 39.2362 42.7584 37.6739 42.7584C36.1115 42.7584 34.845 41.4919 34.845 39.9296C34.845 39.494 34.9435 39.0814 35.1194 38.7128H30.6229C30.8064 39.0814 30.9092 39.494 30.9092 39.9296C30.9092 41.4919 29.5876 42.7584 27.9573 42.7584C26.3271 42.7584 25.0055 41.4919 25.0055 39.9296C25.0055 39.494 25.1082 39.0814 25.2918 38.7128H23.7806V36.4729H38.791L38.0435 34.3847H23.0064L17.2355 19.1049H20.1888C20.1964 19.0498 20.2043 18.9948 20.2127 18.94C21.0221 13.6239 25.6131 9.55078 31.1554 9.55078ZM25.7319 12.9546C26.3731 12.5001 27.0738 12.1241 27.82 11.8404C27.3784 12.3212 26.9714 12.8589 26.6073 13.445C26.3068 13.2956 26.0147 13.1318 25.7319 12.9546ZM24.4058 14.0929C24.857 14.4037 25.3307 14.6843 25.824 14.9316C25.2942 16.131 24.9231 17.48 24.7633 18.94H21.9159C22.2529 17.0743 23.1411 15.4004 24.4058 14.0929ZM27.3759 15.5764C26.9308 16.5746 26.6077 17.7053 26.4547 18.94H35.8299C35.6772 17.7085 35.3553 16.5803 34.9121 15.5841C33.7302 15.9766 32.4669 16.1889 31.1554 16.1889C29.8354 16.1889 28.5643 15.9738 27.3759 15.5764ZM40.395 18.94H37.5212C37.3619 17.4844 36.9926 16.1391 36.4653 14.9424C36.9664 14.6924 37.4473 14.4082 37.905 14.0929C39.1698 15.4004 40.058 17.0743 40.395 18.94ZM36.579 12.9546C36.2898 13.1358 35.991 13.3029 35.6834 13.455C35.3139 12.8588 34.9 12.3126 34.4505 11.8252C35.2118 12.1105 35.9263 12.4919 36.579 12.9546ZM28.1988 14.0754C29.0336 12.8206 30.0696 11.906 31.1423 11.3945C32.2169 11.9069 33.2545 12.8238 34.0901 14.082C33.1612 14.3596 32.1763 14.5089 31.1554 14.5089C30.1265 14.5089 29.1341 14.3573 28.1988 14.0754ZM40.598 32.1447L42.4342 21.3448H20.4759L24.5548 32.1447H40.598ZM37.6739 40.7985C37.194 40.7985 36.805 40.4095 36.805 39.9296C36.805 39.4498 37.194 39.0608 37.6739 39.0608C38.1537 39.0608 38.5427 39.4498 38.5427 39.9296C38.5427 40.4095 38.1537 40.7985 37.6739 40.7985ZM26.9655 39.9296C26.9655 40.3317 27.3301 40.7985 27.9573 40.7985C28.5846 40.7985 28.9492 40.3317 28.9492 39.9296C28.9492 39.5276 28.5846 39.0608 27.9573 39.0608C27.3301 39.0608 26.9655 39.5276 26.9655 39.9296Z" fill="#FECE00"/>
</svg>
