<svg width="73" height="56" viewBox="0 0 73 56" fill="none" xmlns="http://www.w3.org/2000/svg">
<path d="M65.7723 16.0903L70.0837 0L53.9934 4.31137L58.5936 8.91154L37.2192 30.2859L16.174 12.6351L0.159546 28.6496L3.25659 31.7466L16.4338 18.5694L37.479 36.2202L61.6906 12.0086L65.7723 16.0903Z" fill="#FECE00"/>
<path fill-rule="evenodd" clip-rule="evenodd" d="M62.128 17.9785L51.4923 28.388V55.7693H72.0849V26.2382L62.128 17.9785ZM62.3356 23.0284L68.3307 28.0017V52.0151H55.2465V29.9667L62.3356 23.0284Z" fill="white"/>
<path fill-rule="evenodd" clip-rule="evenodd" d="M2.61328 37.666L16.8697 24.2016L23.2059 29.5195V55.6562H2.61328V37.666ZM19.4517 31.2698L17.017 29.2264L6.36747 39.2842V51.902H19.4517V31.2698Z" fill="white"/>
<path fill-rule="evenodd" clip-rule="evenodd" d="M37.236 40.9472L27.2792 32.9138V55.6562H47.8718V31.7824L37.236 40.9472ZM44.1176 39.9731L37.3151 45.8348L31.0334 40.7665V51.902H44.1176V39.9731Z" fill="white"/>
</svg>
