<svg width="70" height="60" viewBox="0 0 70 60" fill="none" xmlns="http://www.w3.org/2000/svg">
<path fill-rule="evenodd" clip-rule="evenodd" d="M34.8201 0.285645L20.373 7.40653V25.1067L34.8201 32.2276L49.5078 25.1148V7.3984L34.8201 0.285645ZM25.9769 8.3904L34.8332 4.0252L43.8468 8.3902L34.8327 12.4179L25.9769 8.3904ZM36.5067 15.3501L46.1478 11.0422V23.0087L36.5067 27.6776V15.3501ZM33.1467 15.3422V27.6567L23.733 23.0168V11.0611L33.1467 15.3422Z" fill="#F8F9FC"/>
<path fill-rule="evenodd" clip-rule="evenodd" d="M59.6943 32.0839L49.784 36.9686V49.117L59.6943 54.0017L69.7671 49.1238V36.9618L59.6943 32.0839ZM54.4538 37.7885L59.7051 35.2002L65.0496 37.7883L59.7048 40.1765L54.4538 37.7885ZM61.0997 42.6201L66.9671 39.9983V47.3687L61.0997 50.2101V42.6201ZM58.2997 42.6135V50.1927L52.584 47.3755V40.0141L58.2997 42.6135Z" fill="#F8F9FC"/>
<path fill-rule="evenodd" clip-rule="evenodd" d="M10.1436 32.0839L20.2164 36.9618V49.1238L10.1436 54.0017L0.233246 49.117V36.9686L10.1436 32.0839ZM10.1544 35.2002L4.90314 37.7885L10.1541 40.1765L15.4989 37.7883L10.1544 35.2002ZM17.4164 39.9983L11.549 42.6201V50.2101L17.4164 47.3687V39.9983ZM8.74901 50.1927V42.6135L3.03325 40.0141V47.3755L8.74901 50.1927Z" fill="#F8F9FC"/>
<path fill-rule="evenodd" clip-rule="evenodd" d="M34.9187 37.796L25.0083 42.6807V54.8291L34.9187 59.7139L44.9915 54.8359V42.674L34.9187 37.796ZM29.6782 43.5006L34.9295 40.9123L40.274 43.5005L34.9292 45.8886L29.6782 43.5006ZM36.3241 48.3322L42.1915 45.7105V53.0808L36.3241 55.9222V48.3322ZM33.5241 48.3256V55.9048L27.8083 53.0876V45.7262L33.5241 48.3256Z" fill="#F8F9FC"/>
<path d="M40.1617 20.3461C42.7866 23.4016 44.8349 25.8207 46.8859 28.2431L46.8866 28.2439C48.9376 30.6662 50.9914 33.0918 53.6232 36.1553L55.7471 34.3307C53.1221 31.2752 51.0739 28.8561 49.0228 26.4337L49.0218 26.4325C46.971 24.0104 44.9172 21.5847 42.2856 18.5215L40.1617 20.3461Z" fill="#FECE00"/>
<path d="M27.3431 18.5242L13.8318 34.3335L15.9604 36.1526L29.4716 20.3434L27.3431 18.5242Z" fill="#FECE00"/>
<path d="M43.9083 46.3025L55.1973 43.7712L55.8099 46.5034L44.5209 49.0347L43.9083 46.3025Z" fill="#FECE00"/>
<path d="M15.4643 46.6599L25.4118 48.3503L25.8809 45.5899L15.9334 43.8995L15.4643 46.6599Z" fill="#FECE00"/>
</svg>
