<svg width="56" height="56" viewBox="0 0 56 56" fill="none" xmlns="http://www.w3.org/2000/svg">
<path d="M14.6733 2.55518V6.8234H18.0333V5.91517H23.8827V2.55518H14.6733Z" fill="#F8F9FC"/>
<path d="M32.2356 2.55518V5.91517H37.9674V6.8234H41.3274V2.55518H32.2356Z" fill="#F8F9FC"/>
<path d="M14.6733 19.7646V24.6854L21.4065 32.5034H34.5942L41.3274 24.6854V19.7646H37.9674V23.438L33.0536 29.1434H22.9471L18.0333 23.438V19.7646H14.6733Z" fill="#F8F9FC"/>
<path fill-rule="evenodd" clip-rule="evenodd" d="M49.765 44.9181V55.9999H6.23555V44.9181L12.6745 39.0588H43.4706L49.765 44.9181ZM42.1488 42.4188L46.405 46.3808V52.6399H9.59555V46.4035L13.9744 42.4188H42.1488Z" fill="#F8F9FC"/>
<path fill-rule="evenodd" clip-rule="evenodd" d="M23.8827 6.82349V0H32.3533V6.82349H42.7064V19.7646H31.8829L28.3534 17.7646L24.3534 19.7646H13.2946V6.82349H23.8827ZM26.6827 2.8H29.5533V6.82349H26.6827V2.8ZM23.5603 16.4046H16.6546V10.1835H39.3464V16.4046H32.7687L28.4522 13.9587L23.5603 16.4046Z" fill="#FECE00"/>
</svg>
