<svg width="62" height="56" viewBox="0 0 62 56" fill="none" xmlns="http://www.w3.org/2000/svg">
<path d="M33.3325 13.4729L35.6158 15.7477L33.2442 18.128L26.4792 11.3877L33.2442 4.64746L35.6158 7.02769L32.6717 9.961C41.772 11.2051 46.9297 16.7629 48.9429 20.6067L45.9664 22.1656C44.4568 19.2832 40.5053 14.8286 33.3325 13.4729Z" fill="#F8F9FC"/>
<path d="M50.2475 32.0841L50.2438 32.0998L50.2436 32.1006L50.2435 32.1009C50.2435 32.1009 50.2436 32.1008 50.2406 32.1L47.0305 32.3034C47.0278 32.3045 47.0279 32.3046 47.0279 32.3046L47.0202 32.2847C47.0112 32.2617 46.9957 32.2228 46.9736 32.17C46.9293 32.0641 46.8588 31.9034 46.7613 31.703C46.5652 31.3001 46.2658 30.7498 45.8582 30.1692C45.0234 28.9798 43.8499 27.8243 42.3274 27.3607L43.3062 24.1464C45.5448 24.8281 47.1482 26.3349 48.2122 27.7027C48.6177 26.7561 49.1372 25.6965 49.7902 24.623C51.8443 21.2462 55.3941 17.472 61.0636 17.074L61.2989 20.4257C57.1873 20.7144 54.4493 23.4289 52.6608 26.3692C51.7756 27.8246 51.1658 29.2718 50.7774 30.3606C50.5841 30.9025 50.4479 31.3493 50.3613 31.6555C50.318 31.8084 50.2872 31.9258 50.2679 32.0019L50.2616 32.027L50.2561 32.049C50.2525 32.0637 50.2496 32.0754 50.2475 32.0841Z" fill="#F8F9FC"/>
<path d="M50.2406 32.1L47.0293 32.3085L47.0287 32.3069L50.2406 32.1Z" fill="#F8F9FC"/>
<path fill-rule="evenodd" clip-rule="evenodd" d="M31.6613 50.3029C34.9454 50.3029 39.1375 48.9893 42.7008 46.7139C46.2644 44.4383 49.4848 41.0124 50.3772 36.5898L47.0835 35.9252C46.4383 39.1233 44.0274 41.8801 40.8924 43.882C37.7573 45.8841 34.1836 46.9429 31.6613 46.9429H11.7201V42.7459H0.701416V54.0094H11.7201V50.3029H31.6613ZM4.06142 46.1059H8.36006V50.6494H4.06142V46.1059Z" fill="#F8F9FC"/>
<path d="M23.7461 11.9204C16.7392 12.7812 11.9487 18.5329 10.5576 25.0017C9.15468 31.5252 11.1116 39.1002 17.8721 43.8912L19.8148 41.1498C14.2954 37.2383 12.6831 31.0992 13.8425 25.7081C15.0136 20.2623 18.9167 15.8989 24.1557 15.2554L23.7461 11.9204Z" fill="#F8F9FC"/>
<path d="M53.1615 41.5062L60.4781 48.7453L53.1615 55.9844L51.1922 53.994L55.0821 50.1453H45.2652V47.3453H55.0821L51.1922 43.4966L53.1615 41.5062Z" fill="#F8F9FC"/>
<path fill-rule="evenodd" clip-rule="evenodd" d="M22.1615 0.0158691L25.071 8.43732L16.6496 11.3468L15.5524 8.17103L19.2735 6.88544C17.3707 5.81431 15.7422 5.48315 14.4253 5.56555C12.561 5.6822 11.0543 6.64243 10.0132 8.05271C8.95555 9.48523 8.42961 11.3233 8.55298 13.0072C8.67449 14.6656 9.40675 16.0751 10.7712 16.919L9.00376 19.7766C6.55918 18.2646 5.38693 15.7771 5.20197 13.2527C5.01887 10.7537 5.78451 8.12334 7.31004 6.05703C8.852 3.96847 11.22 2.39954 14.2155 2.21211C15.9584 2.10305 17.8209 2.46685 19.7636 3.3646L18.9857 1.11308L22.1615 0.0158691Z" fill="#FECE00"/>
</svg>
