<svg width="80" height="80" viewBox="0 0 80 80" fill="none" xmlns="http://www.w3.org/2000/svg">
<path fill-rule="evenodd" clip-rule="evenodd" d="M5.58594 0H61.4418V45.7658H57.1175V6.84685H9.91026V67.3874H40.5409V77.8378H5.58594V0ZM35.8562 72.4324C35.8562 73.8256 34.7268 74.955 33.3337 74.955C31.9405 74.955 30.8112 73.8256 30.8112 72.4324C30.8112 71.0393 31.9405 69.9099 33.3337 69.9099C34.7268 69.9099 35.8562 71.0393 35.8562 72.4324Z" fill="#F8F9FC"/>
<path fill-rule="evenodd" clip-rule="evenodd" d="M59.0991 70.9911C62.3829 70.9911 65.045 68.329 65.045 65.0452C65.045 61.7613 62.3829 59.0992 59.0991 59.0992C55.8152 59.0992 53.1531 61.7613 53.1531 65.0452C53.1531 68.329 55.8152 70.9911 59.0991 70.9911ZM59.0991 68.5911C61.0575 68.5911 62.645 67.0035 62.645 65.0452C62.645 63.0868 61.0575 61.4992 59.0991 61.4992C57.1407 61.4992 55.5531 63.0868 55.5531 65.0452C55.5531 67.0035 57.1407 68.5911 59.0991 68.5911Z" fill="#F8F9FC"/>
<path fill-rule="evenodd" clip-rule="evenodd" d="M69.4887 59.6C69.7006 60.0325 69.8854 60.4783 70.0415 60.934H74.415V68.4354H70.0415C69.8853 68.8912 69.7006 69.3368 69.4886 69.7694L72.5814 72.8621L67.2771 78.1664L64.1844 75.0737C63.7519 75.2856 63.306 75.4703 62.8504 75.6264V80H55.349V75.6264C54.8933 75.4703 54.4476 75.2856 54.015 75.0737L50.9223 78.1664L45.618 72.8621L48.7107 69.7694C48.4987 69.3368 48.3141 68.9242 48.1579 68.4685H43.7844V60.934H48.1579C48.3141 60.4782 48.4988 60.0326 48.7107 59.6L45.618 56.5072L50.9223 51.203L54.015 54.2957C54.4476 54.0837 54.8933 53.8991 55.349 53.7429V49.3694H62.8504V53.7429C63.3061 53.8991 63.7518 54.0838 64.1844 54.2957L67.2771 51.203L72.5814 56.5072L69.4887 59.6ZM68.6216 56.5072L67.2771 55.1628L64.7494 57.6905L62.9526 56.8102C62.625 56.6497 62.2876 56.5099 61.9427 56.3917L60.0504 55.7433V52.1694H58.149V55.7433L56.2567 56.3917C55.9116 56.51 55.5743 56.6497 55.2471 56.8101L53.4501 57.6906L50.9223 55.1628L49.5778 56.5072L52.1055 59.035L51.2252 60.8318C51.0647 61.1595 50.9249 61.4968 50.8068 61.8415L50.1584 63.734H46.5844V65.6685H50.1583L50.8067 67.5608C50.9103 67.8629 51.04 68.1596 51.2251 68.5373L52.1056 70.3343L49.5778 72.8621L50.9223 74.2066L53.45 71.6789L55.2468 72.5592C55.5744 72.7196 55.9118 72.8595 56.2567 72.9776L58.149 73.6261V77.2H60.0504V73.6262L61.9426 72.9777C62.2876 72.8594 62.6252 72.7196 62.9524 72.5592L64.7494 71.6788L67.2771 74.2066L68.6216 72.8621L66.0937 70.3343L66.9743 68.5373C67.1347 68.2098 67.2745 67.8726 67.3926 67.5278L68.041 65.6354H71.615V63.734H68.0411L67.3927 61.8416C67.2745 61.4967 67.1347 61.1594 66.9744 60.8323L66.0937 59.0352L68.6216 56.5072Z" fill="#F8F9FC"/>
<path d="M33.393 19.2H49.1384V16H33.393V19.2Z" fill="#FECE00"/>
<path d="M21.5836 34.3352H51.5748V31.1352H21.5836V34.3352Z" fill="#FECE00"/>
<path d="M49.3255 25.1242H21.5836V21.9242H49.3255V25.1242Z" fill="#FECE00"/>
<path d="M21.5836 40.8H47.0761V37.6H21.5836V40.8Z" fill="#FECE00"/>
<path d="M43.3272 48H21.5836V44.8H43.3272V48Z" fill="#FECE00"/>
<path d="M21.5836 54.8H39.016V51.6H21.5836V54.8Z" fill="#FECE00"/>
<path d="M15.5859 30.573H20.0846V34.8974H15.5859V30.573Z" fill="#FECE00"/>
<path d="M20.0846 37.2H15.5859V41.5243H20.0846V37.2Z" fill="#FECE00"/>
<path d="M15.5859 44H20.0846V48.3243H15.5859V44Z" fill="#FECE00"/>
<path d="M20.0846 50.8H15.5859V55.1243H20.0846V50.8Z" fill="#FECE00"/>
</svg>
