<svg width="56" height="56" viewBox="0 0 56 56" fill="none" xmlns="http://www.w3.org/2000/svg">
<path fill-rule="evenodd" clip-rule="evenodd" d="M28.1077 12.0499C27.7309 12.0499 27.3574 12.0641 26.9877 12.092C19.7687 12.6363 14.0061 18.3989 13.4617 25.6179C13.4339 25.9876 13.4197 26.3611 13.4197 26.7379C13.4197 27.1147 13.4339 27.4883 13.4617 27.8579C14.0061 35.077 19.7687 40.8396 26.9877 41.3839C27.3574 41.4118 27.7309 41.4259 28.1077 41.4259C28.4845 41.4259 28.858 41.4118 29.2277 41.3839C36.4467 40.8396 42.2093 35.077 42.7536 27.8579C42.7815 27.4883 42.7957 27.1147 42.7957 26.7379C42.7957 26.3611 42.7815 25.9876 42.7536 25.6179C42.2093 18.3989 36.4467 12.6363 29.2277 12.092C28.858 12.0641 28.4845 12.0499 28.1077 12.0499ZM23.6507 15.1116C22.6778 15.4848 21.7636 15.9766 20.9258 16.5694C21.2958 16.8007 21.6777 17.0147 22.0704 17.2101C22.5467 16.4427 23.077 15.7402 23.6507 15.1116ZM21.0274 19.1929C20.3769 18.8666 19.7522 18.4967 19.1569 18.0871C17.235 20.0753 15.9694 22.7019 15.7094 25.6179H19.5313C19.6549 23.2639 20.1908 21.0904 21.0274 19.1929ZM21.7743 25.6179C21.8963 23.5368 22.3766 21.6615 23.0945 20.0519C24.3314 20.4652 25.6362 20.7299 26.9877 20.8245V25.6179H21.7743ZM19.5389 27.8579H15.7094C15.9786 30.8775 17.3262 33.5869 19.3642 35.5982C19.9471 35.2106 20.5573 34.8605 21.1913 34.5516C20.2774 32.5884 19.6845 30.3186 19.5389 27.8579ZM23.2716 33.7157C22.4722 32.0406 21.9281 30.0626 21.7827 27.8579H26.9877V33.001C25.7006 33.0912 24.4557 33.3356 23.2716 33.7157ZM22.2764 36.5151C21.9065 36.6915 21.5459 36.8841 21.1954 37.092C21.9812 37.6176 22.8301 38.0561 23.7284 38.3938C23.2066 37.8263 22.72 37.1977 22.2764 36.5151ZM26.9877 38.2926C26.0661 37.649 25.1938 36.7749 24.4348 35.7046C25.2567 35.4741 26.1103 35.3191 26.9877 35.2475V38.2926ZM29.2277 38.2681C30.1387 37.6252 31.0006 36.7569 31.7514 35.6965C30.9384 35.4705 30.0947 35.3182 29.2277 35.2475V38.2681ZM29.2277 33.001C30.5038 33.0904 31.7384 33.3314 32.9134 33.706C33.7103 32.033 34.2525 30.0584 34.3976 27.8579H29.2277V33.001ZM29.2277 25.6179H34.406C34.2844 23.5411 33.8058 21.6694 33.0904 20.062C31.8626 20.4696 30.568 20.7307 29.2277 20.8245V25.6179ZM29.2277 18.5781C30.1807 18.5003 31.1056 18.3241 31.9924 18.0596C31.1876 16.8514 30.2378 15.8739 29.2277 15.1689V18.5781ZM26.9877 15.1447C25.9669 15.8497 25.0066 16.8328 24.1938 18.0509C25.0895 18.3202 26.0242 18.4995 26.9877 18.5781V15.1447ZM32.5109 15.0911C33.0952 15.7286 33.6346 16.4425 34.1182 17.2234C34.5203 17.0243 34.9111 16.8059 35.2895 16.5694C34.4364 15.9657 33.504 15.4668 32.5109 15.0911ZM37.0584 18.0871C36.4545 18.5027 35.8201 18.8774 35.1593 19.2073C35.9922 21.1014 36.5258 23.2698 36.6491 25.6179H40.506C40.2459 22.7019 38.9804 20.0753 37.0584 18.0871ZM40.506 27.8579H36.6415C36.4962 30.3128 35.9058 32.5777 34.9956 34.5377C35.6397 34.85 36.2595 35.2047 36.8511 35.5982C38.8892 33.5869 40.2367 30.8775 40.506 27.8579ZM35.0199 37.092C34.661 36.8791 34.2915 36.6822 33.9123 36.5024C33.4613 37.1979 32.9657 37.8375 32.4337 38.4137C33.3517 38.0734 34.2187 37.628 35.0199 37.092Z" fill="#FECE00"/>
<path fill-rule="evenodd" clip-rule="evenodd" d="M13.501 2.75217C13.501 3.84429 14.1371 4.78783 15.0591 5.2325V8.65944H1.87134V17.5941H7.18211V22.2845C6.45573 22.6788 5.96257 23.4481 5.96257 24.3327C5.96257 25.6188 7.00519 26.6614 8.29133 26.6614C9.57747 26.6614 10.6201 25.6188 10.6201 24.3327C10.6201 23.5769 10.26 22.9052 9.70211 22.4797V15.0741H4.39134V11.1794H17.5791V5.16449C18.4293 4.69618 19.0053 3.79145 19.0053 2.75217C19.0053 1.23219 17.7732 0 16.2532 0C14.7332 0 13.501 1.23219 13.501 2.75217ZM16.2532 3.82434C15.661 3.82434 15.181 3.34431 15.181 2.75217C15.181 2.16003 15.661 1.68 16.2532 1.68C16.8453 1.68 17.3253 2.16003 17.3253 2.75217C17.3253 3.34431 16.8453 3.82434 16.2532 3.82434Z" fill="#F8F9FC"/>
<path fill-rule="evenodd" clip-rule="evenodd" d="M15.0591 50.7675V47.3406H1.87134V38.4059H7.18211V33.7155C6.45573 33.3212 5.96257 32.5519 5.96257 31.6673C5.96257 30.3812 7.00519 29.3386 8.29133 29.3386C9.57747 29.3386 10.6201 30.3812 10.6201 31.6673C10.6201 32.4231 10.26 33.0948 9.70211 33.5203V40.9259H4.39134V44.8206H17.5791V50.8355C18.4293 51.3038 19.0053 52.2086 19.0053 53.2478C19.0053 54.7678 17.7732 56 16.2532 56C14.7332 56 13.501 54.7678 13.501 53.2478C13.501 52.1557 14.1371 51.2122 15.0591 50.7675ZM15.181 53.2478C15.181 52.6557 15.661 52.1757 16.2532 52.1757C16.8453 52.1757 17.3253 52.6557 17.3253 53.2478C17.3253 53.84 16.8453 54.32 16.2532 54.32C15.661 54.32 15.181 53.84 15.181 53.2478Z" fill="#F8F9FC"/>
<path fill-rule="evenodd" clip-rule="evenodd" d="M40.9412 8.65944V5.23249C41.8632 4.78782 42.4993 3.84428 42.4993 2.75217C42.4993 1.23219 41.2671 0 39.7471 0C38.2271 0 36.9949 1.23219 36.9949 2.75217C36.9949 3.79145 37.571 4.69619 38.4212 5.16449V11.1794H51.6089V15.0741H46.2982V22.4797C45.7402 22.9052 45.3802 23.5769 45.3802 24.3327C45.3802 25.6188 46.4228 26.6614 47.709 26.6614C48.9951 26.6614 50.0377 25.6188 50.0377 24.3327C50.0377 23.4481 49.5446 22.6788 48.8182 22.2845V17.5941H54.1289V8.65944H40.9412ZM39.7471 3.82434C40.3392 3.82434 40.8193 3.34431 40.8193 2.75217C40.8193 2.16003 40.3392 1.68 39.7471 1.68C39.155 1.68 38.6749 2.16003 38.6749 2.75217C38.6749 3.34431 39.155 3.82434 39.7471 3.82434Z" fill="#F8F9FC"/>
<path fill-rule="evenodd" clip-rule="evenodd" d="M40.9412 50.7675V47.3406H54.1289V38.4059H48.8182V33.7155C49.5446 33.3212 50.0377 32.5519 50.0377 31.6673C50.0377 30.3812 48.9951 29.3386 47.709 29.3386C46.4228 29.3386 45.3802 30.3812 45.3802 31.6673C45.3802 32.4231 45.7402 33.0948 46.2982 33.5203V40.9259H51.6089V44.8206H38.4212V50.8355C37.571 51.3038 36.9949 52.2085 36.9949 53.2478C36.9949 54.7678 38.2271 56 39.7471 56C41.2671 56 42.4993 54.7678 42.4993 53.2478C42.4993 52.1557 41.8632 51.2122 40.9412 50.7675ZM40.8193 53.2478C40.8193 52.6557 40.3392 52.1757 39.7471 52.1757C39.155 52.1757 38.6749 52.6557 38.6749 53.2478C38.6749 53.84 39.155 54.32 39.7471 54.32C40.3392 54.32 40.8193 53.84 40.8193 53.2478Z" fill="#F8F9FC"/>
</svg>
