<svg width="56" height="56" viewBox="0 0 56 56" fill="none" xmlns="http://www.w3.org/2000/svg">
<path fill-rule="evenodd" clip-rule="evenodd" d="M23.9914 20.8389L23.3813 10.1624C22.9332 10.1624 22.4912 10.1881 22.0567 10.238C21.5593 10.2953 21.0718 10.3843 20.5962 10.5031C15.6857 11.7293 12.0517 16.1231 12.0517 21.3555C12.0517 27.5373 17.1241 32.5486 23.3813 32.5486C28.6649 32.5486 33.1037 28.9755 34.3571 24.1417C34.5006 23.5883 34.6024 23.0183 34.6589 22.4353C34.6933 22.0799 34.7109 21.7197 34.7109 21.3555L23.9914 20.8389ZM31.4769 24.0029L21.3397 23.5143L20.7597 13.3653C17.3165 14.4571 14.8517 17.6414 14.8517 21.3555C14.8517 25.959 18.6384 29.7486 23.3813 29.7486C27.173 29.7486 30.3537 27.3265 31.4769 24.0029Z" fill="#FECE00"/>
<path fill-rule="evenodd" clip-rule="evenodd" d="M36.8832 19.9904C36.8832 19.9904 36.8906 19.886 36.8937 19.697C36.8998 19.3242 36.8892 18.6225 36.7717 17.745C36.3484 14.5828 34.5379 9.13735 27.1267 8.57209C26.4343 8.51928 25.6931 8.50906 24.8995 8.54728C24.894 8.54755 24.8884 8.54782 24.8829 8.54809L25.4186 19.5793L36.8832 19.9904ZM27.5561 17.4145L34.4946 17.6633C34.3572 16.8394 34.1106 15.9004 33.6804 14.9924C33.1325 13.8364 32.3031 12.76 31.0243 11.9879C30.1162 11.4395 28.8944 10.9921 27.2364 10.8298L27.5561 17.4145Z" fill="#FECE00"/>
<path d="M24.6101 3.92555C15.4289 3.92555 7.99885 11.3334 7.99885 20.4557C7.99885 26.615 11.3837 31.9929 16.4167 34.8388L14.7628 37.7636C8.7232 34.3485 4.63886 27.8799 4.63885 20.4557C4.63885 9.46366 13.5873 0.565552 24.6101 0.565552C35.6328 0.565552 44.5813 9.46366 44.5813 20.4557C44.5813 26.5401 41.8396 31.9819 37.5232 35.6288L51.3615 52.7986L48.0914 55.4342L34.0359 37.995C32.749 38.6824 31.3778 39.2334 29.942 39.6287L29.0502 36.3892C36.0741 34.4556 41.2213 28.0483 41.2213 20.4557C41.2213 11.3334 33.7912 3.92555 24.6101 3.92555Z" fill="#F8F9FC"/>
<path fill-rule="evenodd" clip-rule="evenodd" d="M27.4443 39.2183L26.3841 38.6763L26.1989 37.9852L26.8461 36.9858C26.9125 36.8831 26.9072 36.7497 26.8328 36.6527L26.0814 35.6735C26.0069 35.5765 25.8798 35.5368 25.7632 35.5744L24.6302 35.9409L24.0106 35.5831L23.7615 34.4188C23.7359 34.2992 23.6378 34.2086 23.5166 34.1927L22.2928 34.0316C22.1716 34.0155 22.0534 34.0777 21.9977 34.1865L21.4557 35.2468L20.7647 35.432L19.7652 34.7847C19.6626 34.7183 19.5292 34.7237 19.4322 34.7981L18.4529 35.5495C18.3559 35.6239 18.3162 35.7514 18.3539 35.8677L18.7203 37.0006L18.3626 37.6202L17.1982 37.8693C17.079 37.8945 16.9881 37.993 16.9722 38.1142L16.811 39.338C16.795 39.4593 16.8571 39.5774 16.966 39.6331L18.0262 40.175L18.2114 40.8661L17.5642 41.8656C17.4978 41.9683 17.5031 42.1017 17.5776 42.1987L18.329 43.1779C18.4034 43.275 18.5312 43.315 18.6472 43.277L19.7801 42.9105L20.3997 43.2682L20.6488 44.4326C20.6744 44.5522 20.7725 44.6427 20.8937 44.6587L22.1175 44.8198C22.2388 44.8359 22.3569 44.7737 22.4126 44.6649L22.9546 43.6046L23.6456 43.4194L24.6452 44.0666C24.7153 44.112 24.7997 44.1239 24.8772 44.1032C24.9131 44.0936 24.9475 44.0769 24.9782 44.0533L25.9575 43.3019C26.0545 43.2274 26.0941 43.1 26.0565 42.9836L25.6901 41.8507L26.0478 41.2312L27.2122 40.982C27.3313 40.9565 27.4223 40.8584 27.4382 40.7371L27.5993 39.5134C27.6153 39.3921 27.5532 39.274 27.4443 39.2183ZM21.5941 37.1946C20.3688 37.5229 19.6391 38.7869 19.9674 40.0121C20.2957 41.2374 21.5597 41.9671 22.7849 41.6388C24.0102 41.3105 24.7399 40.0465 24.4116 38.8213C24.0833 37.596 22.8194 36.8663 21.5941 37.1946Z" fill="#F8F9FC"/>
</svg>
