<svg width="56" height="60" viewBox="0 0 56 60" fill="none" xmlns="http://www.w3.org/2000/svg">
<path d="M22.9394 36.0138C23.6997 35.236 24.0798 34.2946 24.0798 33.1894C24.0798 32.3026 23.8694 31.5863 23.4485 31.0405C23.0412 30.4947 22.5322 30.0854 21.9212 29.8125C21.3103 29.526 18.2689 28.5744 17.6042 28.4618C17.2825 28.3638 16.8303 28.1002 16.586 27.8682C16.3552 27.6227 16.2398 27.3157 16.2398 26.9473C16.2398 26.5379 16.3552 26.1968 16.586 25.924C16.8303 25.6374 17.2376 25.3918 17.6042 25.31C19.8645 24.8052 21.738 25.8899 22.7154 26.5993L23.754 24.3071C23.3195 23.9115 22.7562 23.584 22.0638 23.3248C21.3714 23.0519 20.6383 22.8609 19.8645 22.7517V20.48H17.3802V22.7722C16.0905 22.9905 15.0451 23.5021 14.2442 24.3071C13.4568 25.0985 13.0631 26.0468 13.0631 27.1519C13.0631 28.0661 13.2735 28.8029 13.6943 29.3623C14.1288 29.908 14.6582 30.3242 15.2827 30.6107C15.9072 30.8972 16.681 31.1633 17.6042 31.4089C19.8645 31.8831 20.3736 32.3367 20.5772 32.555C20.7945 32.7596 20.9031 33.0189 20.9031 33.3327C20.9031 34.1513 19.8997 35.2941 17.6042 35.0928C16.2602 34.97 15.0315 34.4993 13.9183 33.6806L12.8798 35.9728C14.0066 36.8597 15.5067 37.3918 17.3802 37.5692V39.8H19.8645V37.4873C21.1542 37.269 22.1792 36.7778 22.9394 36.0138Z" fill="#FECE00"/>
<path fill-rule="evenodd" clip-rule="evenodd" d="M34.7794 38.6468C39.2391 32.7814 37.9551 26.4885 34.7396 21.5767L36.3794 20.5032C39.8764 25.8449 41.4691 33.0868 36.3396 39.8331L34.7794 38.6468Z" fill="#FECE00"/>
<path fill-rule="evenodd" clip-rule="evenodd" d="M31.6787 36.7156C34.8678 32.1906 33.9563 27.3225 31.642 23.5085L33.3176 22.4917C35.885 26.7228 37.0658 32.4742 33.2808 37.8447L31.6787 36.7156Z" fill="#FECE00"/>
<path fill-rule="evenodd" clip-rule="evenodd" d="M28.8365 34.8214C30.7914 31.5145 30.2353 27.9314 28.8067 25.1247L30.5534 24.2356C32.176 27.4232 32.9275 31.7526 30.5237 35.8188L28.8365 34.8214Z" fill="#FECE00"/>
<path fill-rule="evenodd" clip-rule="evenodd" d="M25.8153 32.7726C27.2316 30.8812 26.8588 28.8503 25.7761 27.1711L27.4234 26.109C28.7817 28.2157 29.4549 31.1821 27.3842 33.9474L25.8153 32.7726Z" fill="#FECE00"/>
<path fill-rule="evenodd" clip-rule="evenodd" d="M13.88 0.320068V10.4001H6.72V49.6001H13.8799L13.8799 59.6801H38.8593V49.6001H45.92V39.5201H49.28V31.6801H45.92V27.7601H49.28V19.9201H45.92V10.4001H38.8594V0.320068H13.88ZM35.4994 10.4001V3.68007H17.24V10.4001H35.4994ZM45.92 22.1601V25.5201H47.04V22.1601H45.92ZM45.92 33.9201V37.2801H47.04V33.9201H45.92ZM35.4993 49.6001H17.2399L17.2399 56.3201H35.4993V49.6001ZM10.08 13.7601H42.56V46.2401H10.08V13.7601Z" fill="#F8F9FC"/>
</svg>
