<svg width="75" height="57" viewBox="0 0 75 57" fill="none" xmlns="http://www.w3.org/2000/svg">
<path fill-rule="evenodd" clip-rule="evenodd" d="M40.2365 8.46916C37.1495 8.46916 34.3377 9.78369 32.4188 11.8241L30.0425 9.5893C32.5585 6.91394 36.2217 5.20703 40.2365 5.20703C44.9738 5.20703 49.2145 7.67191 51.7884 11.3374C53.5376 10.7111 55.4272 10.4057 57.3553 10.4057C66.701 10.4057 74.2396 18.089 74.2396 27.4994C74.2396 36.9134 66.6944 44.5931 57.3051 44.5931C56.5546 44.5931 55.8176 44.5309 55.1104 44.4359C52.8118 47.8443 48.9472 50.0612 44.5325 50.0612C43.0748 50.0612 41.7076 49.8015 40.4526 49.3842C37.9828 53.7706 33.2927 56.7232 27.9015 56.7232C22.182 56.7232 17.2188 53.3957 14.9135 48.5415C14.4265 48.5835 13.9506 48.595 13.488 48.595C6.05628 48.595 0.015625 42.5182 0.015625 34.967C0.015625 29.9215 2.74057 25.5332 6.76161 23.1644L8.41738 25.9751C5.34845 27.783 3.27775 31.126 3.27775 34.967C3.27775 40.7457 7.88684 45.3328 13.488 45.3328C14.284 45.3328 14.9425 45.2923 15.5671 45.1509L16.9697 44.8334L17.4604 46.1853C19.0047 50.4402 23.1045 53.4611 27.9015 53.4611C32.5056 53.4611 36.452 50.6793 38.1532 46.6808L38.8079 45.1418L40.33 45.835C41.6248 46.4246 43.0352 46.7991 44.5325 46.7991C48.1276 46.7991 51.2285 44.8331 52.8603 41.8676L53.4261 40.8394L54.5808 41.0491C55.507 41.2173 56.4189 41.3309 57.3051 41.3309C64.8572 41.3309 70.9775 35.1475 70.9775 27.4994C70.9775 19.8475 64.8565 13.6678 57.3553 13.6678C55.349 13.6678 53.4644 14.0696 51.8458 14.8418L50.4691 15.4986L49.7217 14.169C47.8124 10.7728 44.2102 8.46916 40.2365 8.46916Z" fill="white"/>
<path fill-rule="evenodd" clip-rule="evenodd" d="M21.0826 7.97675C19.3608 6.47534 19.1821 3.8624 20.6835 2.14059C22.185 0.418783 24.7979 0.240115 26.5197 1.74153C28.2415 3.24294 28.4202 5.85588 26.9188 7.57769C26.4508 8.11438 25.8748 8.50115 25.2514 8.73384L25.7813 14.162C26.6523 14.2689 27.5018 14.6285 28.213 15.2487C28.8904 15.8394 29.3507 16.5864 29.5869 17.3891L33.4804 17.3892C33.6082 16.9259 33.8394 16.4832 34.1764 16.0967C35.3775 14.7193 37.4679 14.5764 38.8453 15.7775C40.2228 16.9786 40.3657 19.069 39.1646 20.4464C37.9635 21.8239 35.8731 21.9668 34.4957 20.7657C34.1622 20.4749 33.9011 20.132 33.7139 19.7597L29.6433 19.7596C29.4763 20.4444 29.1473 21.1005 28.652 21.6685C27.0005 23.5625 24.1262 23.759 22.2322 22.1074C21.2863 21.2826 20.7638 20.1528 20.6834 18.9925L14.9903 17.3406C14.7845 17.7716 14.5174 18.1822 14.1881 18.5598C13.8257 18.9754 13.4135 19.3218 12.9681 19.598L14.6169 23.8845C15.5102 23.8661 16.4128 24.1672 17.1392 24.8007C18.6889 26.1519 18.8497 28.5036 17.4984 30.0532C16.1471 31.6028 13.7955 31.7636 12.2459 30.4124C10.6962 29.0611 10.5354 26.7094 11.8867 25.1598C12.0406 24.9833 12.2076 24.8247 12.3848 24.6844L10.7255 20.3705C9.28302 20.5294 7.78111 20.1075 6.60113 19.0785C4.36278 17.1267 4.13051 13.7299 6.08235 11.4915C8.03418 9.25318 11.431 9.02091 13.6694 10.9727C14.8876 12.035 15.5116 13.5253 15.5127 15.0239L21.1443 16.658C21.3142 16.3156 21.5303 15.9892 21.7933 15.6877C22.2588 15.1538 22.8215 14.7548 23.432 14.494L22.8853 8.89372C22.2384 8.74748 21.6175 8.44319 21.0826 7.97675ZM22.4458 6.41345C21.5874 5.66491 21.4983 4.36221 22.2468 3.50379C22.9954 2.64536 24.2981 2.55629 25.1565 3.30483C26.0149 4.05337 26.104 5.35607 25.3555 6.2145C24.6069 7.07292 23.3042 7.162 22.4458 6.41345ZM23.3566 17.0509C22.4579 18.0815 22.5648 19.6455 23.5954 20.5441C24.626 21.4428 26.19 21.3359 27.0887 20.3053C27.9874 19.2747 27.8804 17.7107 26.8498 16.812C25.8192 15.9133 24.2552 16.0203 23.3566 17.0509ZM13.609 28.8491C12.9228 28.2507 12.8516 27.2092 13.45 26.523C14.0484 25.8368 15.0898 25.7656 15.776 26.364C16.4623 26.9624 16.5335 28.0038 15.9351 28.69C15.3367 29.3762 14.2953 29.4475 13.609 28.8491Z" fill="#FECE00"/>
</svg>
