<svg width="56" height="58" viewBox="0 0 56 58" fill="none" xmlns="http://www.w3.org/2000/svg">
<path d="M42.4249 10.2078C43.014 10.2078 43.4915 9.73027 43.4915 9.14118C43.4915 8.5521 43.014 8.07455 42.4249 8.07455C41.8358 8.07455 41.3582 8.5521 41.3582 9.14118C41.3582 9.73027 41.8358 10.2078 42.4249 10.2078Z" fill="#F8F9FC"/>
<path d="M45.6249 12.3412C45.6249 12.9303 45.1473 13.4079 44.5582 13.4079C43.9692 13.4079 43.4916 12.9303 43.4916 12.3412C43.4916 11.7521 43.9692 11.2746 44.5582 11.2746C45.1473 11.2746 45.6249 11.7521 45.6249 12.3412Z" fill="#F8F9FC"/>
<path d="M37.5987 10.2078C38.1878 10.2078 38.6653 9.73027 38.6653 9.14118C38.6653 8.5521 38.1878 8.07455 37.5987 8.07455C37.0096 8.07455 36.5321 8.5521 36.5321 9.14118C36.5321 9.73027 37.0096 10.2078 37.5987 10.2078Z" fill="#F8F9FC"/>
<path d="M40.7984 12.3412C40.7984 12.9303 40.3209 13.4079 39.7318 13.4079C39.1427 13.4079 38.6652 12.9303 38.6652 12.3412C38.6652 11.7521 39.1427 11.2746 39.7318 11.2746C40.3209 11.2746 40.7984 11.7521 40.7984 12.3412Z" fill="#F8F9FC"/>
<path d="M32.772 10.2078C33.3611 10.2078 33.8386 9.73027 33.8386 9.14118C33.8386 8.5521 33.3611 8.07455 32.772 8.07455C32.1829 8.07455 31.7054 8.5521 31.7054 9.14118C31.7054 9.73027 32.1829 10.2078 32.772 10.2078Z" fill="#F8F9FC"/>
<path d="M35.9717 12.3412C35.9717 12.9303 35.4942 13.4079 34.9051 13.4079C34.316 13.4079 33.8384 12.9303 33.8384 12.3412C33.8384 11.7521 34.316 11.2746 34.9051 11.2746C35.4942 11.2746 35.9717 11.7521 35.9717 12.3412Z" fill="#F8F9FC"/>
<path fill-rule="evenodd" clip-rule="evenodd" d="M14.3989 10.4745C14.3989 12.2418 12.9662 13.6745 11.1989 13.6745C9.43156 13.6745 7.99887 12.2418 7.99887 10.4745C7.99887 8.70715 9.43156 7.27447 11.1989 7.27447C12.9662 7.27447 14.3989 8.70715 14.3989 10.4745ZM12.1589 10.4745C12.1589 11.0047 11.7291 11.4345 11.1989 11.4345C10.6687 11.4345 10.2389 11.0047 10.2389 10.4745C10.2389 9.94427 10.6687 9.51447 11.1989 9.51447C11.7291 9.51447 12.1589 9.94427 12.1589 10.4745Z" fill="#F8F9FC"/>
<path fill-rule="evenodd" clip-rule="evenodd" d="M0.798716 0.341187H54.9319V17.0611H55.0121V45.941H51.6521V20.4211H4.07887V33.5944H23.7322V36.9544L4.07887 36.9545V50.3944H42.3988V53.7544H0.718872V17.0611H0.798716V0.341187ZM4.15872 3.70119H51.5719V16.9811H4.15872V3.70119Z" fill="#F8F9FC"/>
<path d="M42.3049 43.7946C43.0413 43.7946 43.6383 43.1977 43.6383 42.4613C43.6383 41.7249 43.0413 41.1279 42.3049 41.1279C41.5686 41.1279 40.9716 41.7249 40.9716 42.4613C40.9716 43.1977 41.5686 43.7946 42.3049 43.7946Z" fill="#F8F9FC"/>
<path d="M38.8121 42.4613C38.8121 43.1977 38.2151 43.7946 37.4788 43.7946C36.7424 43.7946 36.1454 43.1977 36.1454 42.4613C36.1454 41.7249 36.7424 41.1279 37.4788 41.1279C38.2151 41.1279 38.8121 41.7249 38.8121 42.4613Z" fill="#F8F9FC"/>
<path d="M39.6119 46.9946C40.3482 46.9946 40.9452 46.3977 40.9452 45.6613C40.9452 44.9249 40.3482 44.328 39.6119 44.328C38.8755 44.328 38.2785 44.9249 38.2785 45.6613C38.2785 46.3977 38.8755 46.9946 39.6119 46.9946Z" fill="#F8F9FC"/>
<path d="M33.9854 42.4613C33.9854 43.1977 33.3884 43.7946 32.652 43.7946C31.9157 43.7946 31.3187 43.1977 31.3187 42.4613C31.3187 41.7249 31.9157 41.1279 32.652 41.1279C33.3884 41.1279 33.9854 41.7249 33.9854 42.4613Z" fill="#F8F9FC"/>
<path d="M41.4114 26.0833C41.9661 26.0833 42.4157 25.6336 42.4157 25.0789C42.4157 24.5241 41.9661 24.0745 41.4114 24.0745C40.8566 24.0745 40.407 24.5241 40.407 25.0789C40.407 25.6336 40.8566 26.0833 41.4114 26.0833Z" fill="#F8F9FC"/>
<path d="M44.4137 28.6374C44.4137 29.3737 43.8168 29.9707 43.0804 29.9707C42.344 29.9707 41.7471 29.3737 41.7471 28.6374C41.7471 27.901 42.344 27.304 43.0804 27.304C43.8168 27.304 44.4137 27.901 44.4137 28.6374Z" fill="#F8F9FC"/>
<path d="M36.834 26.0833C37.3887 26.0833 37.8384 25.6336 37.8384 25.0789C37.8384 24.5241 37.3887 24.0745 36.834 24.0745C36.2793 24.0745 35.8296 24.5241 35.8296 25.0789C35.8296 25.6336 36.2793 26.0833 36.834 26.0833Z" fill="#F8F9FC"/>
<path d="M39.972 28.6374C39.972 29.3737 39.3751 29.9707 38.6387 29.9707C37.9023 29.9707 37.3054 29.3737 37.3054 28.6374C37.3054 27.901 37.9023 27.304 38.6387 27.304C39.3751 27.304 39.972 27.901 39.972 28.6374Z" fill="#F8F9FC"/>
<path d="M32.2564 26.0833C32.8111 26.0833 33.2608 25.6336 33.2608 25.0789C33.2608 24.5241 32.8111 24.0745 32.2564 24.0745C31.7017 24.0745 31.252 24.5241 31.252 25.0789C31.252 25.6336 31.7017 26.0833 32.2564 26.0833Z" fill="#F8F9FC"/>
<path d="M34.9676 28.6374C34.9676 29.3737 34.3706 29.9707 33.6342 29.9707C32.8979 29.9707 32.3009 29.3737 32.3009 28.6374C32.3009 27.901 32.8979 27.304 33.6342 27.304C34.3706 27.304 34.9676 27.901 34.9676 28.6374Z" fill="#F8F9FC"/>
<path fill-rule="evenodd" clip-rule="evenodd" d="M11.1989 30.2079C12.9662 30.2079 14.3989 28.7752 14.3989 27.0079C14.3989 25.2406 12.9662 23.8079 11.1989 23.8079C9.43156 23.8079 7.99887 25.2406 7.99887 27.0079C7.99887 28.7752 9.43156 30.2079 11.1989 30.2079ZM11.1989 27.9679C11.7291 27.9679 12.1589 27.538 12.1589 27.0079C12.1589 26.4777 11.7291 26.0479 11.1989 26.0479C10.6687 26.0479 10.2389 26.4777 10.2389 27.0079C10.2389 27.538 10.6687 27.9679 11.1989 27.9679Z" fill="#F8F9FC"/>
<path fill-rule="evenodd" clip-rule="evenodd" d="M14.3989 43.8079C14.3989 45.5752 12.9662 47.0079 11.1989 47.0079C9.43156 47.0079 7.99887 45.5752 7.99887 43.8079C7.99887 42.0406 9.43156 40.6079 11.1989 40.6079C12.9662 40.6079 14.3989 42.0406 14.3989 43.8079ZM12.1589 43.8079C12.1589 44.3381 11.7291 44.7679 11.1989 44.7679C10.6687 44.7679 10.2389 44.3381 10.2389 43.8079C10.2389 43.2777 10.6687 42.8479 11.1989 42.8479C11.7291 42.8479 12.1589 43.2777 12.1589 43.8079Z" fill="#F8F9FC"/>
<path fill-rule="evenodd" clip-rule="evenodd" d="M43.5918 47.2125C42.1145 47.8765 40.4761 48.2459 38.7514 48.2459C32.2239 48.2459 26.9324 42.9543 26.9324 36.4268C26.9324 29.8994 32.2239 24.6078 38.7514 24.6078C45.2789 24.6078 50.5705 29.8994 50.5705 36.4268C50.5705 39.713 49.2293 42.686 47.0645 44.8282L55.2817 55.0236L52.0116 57.6592L43.5918 47.2125ZM47.2105 36.4268C47.2105 41.0987 43.4232 44.8859 38.7514 44.8859C34.0796 44.8859 30.2924 41.0987 30.2924 36.4268C30.2924 31.755 34.0796 27.9678 38.7514 27.9678C43.4232 27.9678 47.2105 31.755 47.2105 36.4268Z" fill="#FECE00"/>
</svg>
