<svg width="70" height="56" viewBox="0 0 70 56" fill="none" xmlns="http://www.w3.org/2000/svg">
<path fill-rule="evenodd" clip-rule="evenodd" d="M58.5039 38.2824C58.5039 42.1729 55.4088 45.3268 51.5907 45.3268C47.7727 45.3268 44.6776 42.1729 44.6776 38.2824C44.6776 34.392 47.7727 31.2381 51.5907 31.2381C55.4088 31.2381 58.5039 34.392 58.5039 38.2824ZM55.7039 38.2824C55.7039 40.6764 53.813 42.5268 51.5907 42.5268C49.3685 42.5268 47.4776 40.6764 47.4776 38.2824C47.4776 35.8885 49.3685 34.0381 51.5907 34.0381C53.813 34.0381 55.7039 35.8885 55.7039 38.2824Z" fill="#FECE00"/>
<path fill-rule="evenodd" clip-rule="evenodd" d="M64.6179 33.6777C64.4351 33.1442 64.2188 32.6223 63.9706 32.1159L67.5916 28.4949L61.3814 22.2847L57.7604 25.9057C57.2539 25.6576 56.7321 25.4413 56.1986 25.2585V20.1379H47.416V25.2585C46.8825 25.4413 46.3606 25.6575 45.8542 25.9057L42.2332 22.2847L36.023 28.4949L39.6439 32.1159C39.3958 32.6223 39.1796 33.1441 38.9967 33.6777H33.8762V42.4603H38.9967C39.1796 42.9938 39.3958 43.5156 39.6439 44.0221L36.023 47.6431L42.2332 53.8533L45.8542 50.2323C46.3606 50.4804 46.8825 50.6967 47.416 50.8795V56H56.1986V50.8795C56.732 50.6967 57.254 50.4804 57.7604 50.2323L61.3813 53.8533L67.5915 47.6431L63.9705 44.0221C64.2187 43.5156 64.435 42.9939 64.6178 42.4603H69.7383V33.6777H64.6179ZM63.6318 28.4949L61.3814 26.2445L58.3254 29.3004L56.5286 28.4202C56.1271 28.2235 55.7136 28.0521 55.2909 27.9073L53.3986 27.2588V22.9379H50.216V27.2588L48.3236 27.9073C47.9008 28.0522 47.4873 28.2235 47.0863 28.42L45.2893 29.3006L42.2332 26.2445L39.9828 28.4949L43.0387 31.5508L42.1584 33.3477C41.9617 33.7492 41.7904 34.1627 41.6456 34.5852L40.9972 36.4777H36.6762V39.6603H40.9971L41.6456 41.5526C41.7905 41.9755 41.9618 42.3889 42.1583 42.79L43.0389 44.587L39.9828 47.6431L42.2332 49.8935L45.2891 46.8376L47.086 47.7178C47.4874 47.9145 47.901 48.0859 48.3236 48.2307L50.216 48.8792V53.2001H53.3986V48.8792L55.2908 48.2308C55.7136 48.0858 56.1273 47.9144 56.5284 47.7179L58.3254 46.8375L61.3813 49.8935L63.6317 47.6431L60.5756 44.587L61.4562 42.79C61.6529 42.3887 61.8242 41.9753 61.969 41.5527L62.6174 39.6603H66.9383V36.4777H62.6175L61.9691 34.5854C61.8242 34.1626 61.6529 33.7491 61.4563 33.3481L60.5756 31.5511L63.6318 28.4949Z" fill="#FECE00"/>
<path d="M3.62111 41.8103H30.1532V44.1703H0.761108V0.5H60.5453V17.3801H58.1853V8.3497V7.8497H57.6853H3.62111H3.12111V8.3497V41.3103V41.8103H3.62111ZM6.62345 6.86234C7.67279 6.86234 8.52345 6.01168 8.52345 4.96234C8.52345 3.913 7.67279 3.06234 6.62345 3.06234C5.57411 3.06234 4.72345 3.913 4.72345 4.96234C4.72345 6.01168 5.57411 6.86234 6.62345 6.86234ZM10.5435 6.86234C11.5928 6.86234 12.4435 6.01168 12.4435 4.96234C12.4435 3.913 11.5928 3.06234 10.5435 3.06234C9.49411 3.06234 8.64345 3.913 8.64345 4.96234C8.64345 6.01168 9.49411 6.86234 10.5435 6.86234ZM14.4635 6.86234C15.5128 6.86234 16.3635 6.01168 16.3635 4.96234C16.3635 3.913 15.5128 3.06234 14.4635 3.06234C13.4141 3.06234 12.5635 3.913 12.5635 4.96234C12.5635 6.01168 13.4141 6.86234 14.4635 6.86234Z" fill="#F8F9FC" stroke="#F8F9FC"/>
</svg>
