<svg width="56" height="60" viewBox="0 0 56 60" fill="none" xmlns="http://www.w3.org/2000/svg">
<path d="M30.3691 34.5748L30.3689 34.5755L30.3687 34.5766C30.3687 34.5765 30.3687 34.5765 30.3658 34.5757L27.1652 34.7845C27.1626 34.7856 27.1626 34.7856 27.1626 34.7857L27.163 34.7865L27.1635 34.7879L27.1626 34.7857C27.1607 34.7808 27.1567 34.7708 27.1508 34.756C27.1388 34.7263 27.1186 34.6775 27.0902 34.6119C27.0332 34.4805 26.9434 34.2827 26.8196 34.0371C26.5708 33.5436 26.191 32.8693 25.6728 32.1565C24.6193 30.7072 23.1007 29.2425 21.0806 28.6486L22.0285 25.425C25.0097 26.3016 27.0684 28.378 28.3492 30.1241C28.8801 28.8497 29.6043 27.3523 30.5614 25.833C33.0888 21.8209 37.3964 17.4359 44.216 16.9736L44.4433 20.3259C39.1326 20.6859 35.6423 24.0712 33.4043 27.6239C32.2916 29.3902 31.5269 31.1435 31.0406 32.46C30.7984 33.1159 30.6275 33.6571 30.5184 34.029C30.4639 34.2149 30.425 34.358 30.4005 34.4514C30.3882 34.4982 30.3796 34.5324 30.3744 34.5534C30.3728 34.5598 30.3715 34.5649 30.3706 34.5688C30.3699 34.5713 30.3695 34.5733 30.3691 34.5748Z" fill="#FECE00"/>
<path d="M18.8316 30.1298C18.8316 24.9336 22.9842 20.7498 28.0716 20.7498C29.391 20.7498 30.643 21.0297 31.7757 21.5335L32.7998 19.231C31.3516 18.5869 29.7513 18.2298 28.0716 18.2298C21.5611 18.2298 16.3116 23.5734 16.3116 30.1298C16.3116 36.6862 21.5611 42.0298 28.0716 42.0298C34.5822 42.0298 39.8316 36.6862 39.8316 30.1298C39.8316 28.1356 39.3459 26.252 38.4859 24.5974L36.2499 25.7596C36.9272 27.0628 37.3116 28.5486 37.3116 30.1298C37.3116 35.326 33.1591 39.5098 28.0716 39.5098C22.9842 39.5098 18.8316 35.326 18.8316 30.1298Z" fill="#FECE00"/>
<path fill-rule="evenodd" clip-rule="evenodd" d="M27.9999 0.121582L28.9201 0.724013C33.2055 3.52955 44.1532 9.29896 53.7009 10.1669L55.2213 10.3052L55.2287 11.8319C55.261 18.4785 53.9954 28.7915 50.0708 38.2496C46.1482 47.7029 39.4475 56.5659 28.4669 59.7434L27.9999 59.8785L27.5329 59.7434C16.5545 56.5665 9.85328 47.7294 5.9299 38.2981C2.00495 28.863 0.739452 18.5729 0.771717 11.9261L0.779128 10.3994L2.2996 10.2612C11.8401 9.39388 22.7836 3.53656 27.0797 0.724013L27.9999 0.121582ZM4.14663 13.4303C4.29895 19.7241 5.59586 28.7471 9.03218 37.0076C12.6906 45.8018 18.6572 53.4804 27.9999 56.3759C37.3406 53.4803 43.308 45.7808 46.9674 36.9618C50.4043 28.6791 51.7014 19.6339 51.8538 13.3366C42.5716 12.0642 32.7104 7.03613 28.0008 4.1207C23.2989 7.04132 13.435 12.1492 4.14663 13.4303Z" fill="#F8F9FC"/>
</svg>
