<svg width="80" height="80" viewBox="0 0 80 80" fill="none" xmlns="http://www.w3.org/2000/svg">
<path fill-rule="evenodd" clip-rule="evenodd" d="M9.0127 0H53.0598V12.9957H48.2618V7.67021H13.8107V67.4101H48.2618V63.0174H53.0598V80H9.0127V0ZM31.0037 77.1847C32.7702 77.1847 34.2023 75.7526 34.2023 73.986C34.2023 72.2194 32.7702 70.7873 31.0037 70.7873C29.2371 70.7873 27.805 72.2194 27.805 73.986C27.805 75.7526 29.2371 77.1847 31.0037 77.1847Z" fill="#F8F9FC"/>
<path d="M63.0936 9.99633C61.1801 10.0743 58.8846 11.2522 57.5126 12.8592C56.3466 14.2099 55.2076 16.4621 55.5076 18.7321C55.5265 18.8742 55.642 18.9838 55.7849 18.9948C55.9141 19.0049 56.0459 19.01 56.1773 19.0101C58.0483 19.0101 60.0667 17.975 61.4452 16.3082C62.896 14.5483 63.6296 12.2896 63.4076 10.2664C63.3902 10.1079 63.2507 9.99014 63.0936 9.99633Z" fill="#FECE00"/>
<path d="M59.6497 46.2668C58.8231 45.909 57.9686 45.5393 56.6454 45.5269L49.5151 18.9164C49.7037 18.901 49.8931 18.8919 50.0831 18.8891C50.1145 18.8885 50.1465 18.8881 50.1789 18.8881C51.5379 18.8881 52.8216 19.3975 53.9542 19.847L53.9552 19.8474C54.8018 20.1832 55.5328 20.4733 56.0962 20.4733C56.5978 20.4733 57.3251 20.1865 58.1671 19.8545C59.3869 19.3735 60.9052 18.7749 62.4901 18.7749C62.6931 18.7749 62.8952 18.7848 63.091 18.8043C64.4404 18.8624 67.7921 19.3447 69.9789 22.5449C70.0251 22.6124 70.0421 22.6959 70.0258 22.7761C70.0095 22.8565 69.9616 22.9268 69.8928 22.9711L69.8631 22.9895C69.2278 23.3826 66.0596 25.5513 66.1003 29.6467C66.1441 34.6875 70.313 36.5369 70.7883 36.7313L70.7927 36.7332L70.7938 36.7336C70.7996 36.7361 70.8077 36.7395 70.8105 36.7408C70.9514 36.8055 71.0209 36.9659 70.9717 37.1129L70.9613 37.1458C70.7031 37.973 69.9378 40.1376 68.4122 42.367L68.412 42.3674C66.9501 44.5025 65.2931 46.9226 62.5944 46.9729C61.3364 46.9965 60.4839 46.6276 59.6572 46.27L59.6502 46.267L59.6497 46.2668Z" fill="#FECE00"/>
<path fill-rule="evenodd" clip-rule="evenodd" d="M44.5705 17.545C45.1423 17.3918 45.7149 17.2778 46.2847 17.2012L49.2411 28.2344L35.4728 31.9236C34.3611 27.7548 35.8686 23.459 39.0288 20.5642L36.1962 17.6275C36.0369 17.4626 36.041 17.2236 36.2055 17.0647C36.2556 17.0163 36.3108 16.9838 36.3747 16.966C36.5115 16.9279 36.6598 16.9616 36.7683 17.074L39.6359 20.0413C41.0296 18.9159 42.6983 18.0467 44.5705 17.545ZM41.3994 25.5896C42.0619 25.5896 42.5989 25.0526 42.5989 24.3901C42.5989 23.7276 42.0619 23.1906 41.3994 23.1906C40.7369 23.1906 40.1999 23.7276 40.1999 24.3901C40.1999 25.0526 40.7369 25.5896 41.3994 25.5896Z" fill="#FECE00"/>
<path d="M35.7286 32.878L49.4968 29.1888L54.9725 49.6243L51.4816 50.5597L53.0825 56.5345C53.4868 58.0434 52.6079 59.5657 51.099 59.97C49.5901 60.3743 48.0678 59.4954 47.6635 57.9865L46.0626 52.0117L44.1254 52.5308C42.5071 52.9644 40.8551 52.0107 40.4215 50.3923L35.7286 32.878Z" fill="#FECE00"/>
<path d="M29.9025 36.8447C29.4982 35.3358 30.3771 33.8135 31.886 33.4092C33.3949 33.0049 34.9172 33.8838 35.3215 35.3927L38.3456 46.6789C38.7499 48.1878 37.871 49.7101 36.3621 50.1144C34.8532 50.5187 33.3309 49.6398 32.9266 48.1309L29.9025 36.8447Z" fill="#FECE00"/>
</svg>
