<svg width="72" height="56" viewBox="0 0 72 56" fill="none" xmlns="http://www.w3.org/2000/svg">
<path fill-rule="evenodd" clip-rule="evenodd" d="M26.9034 48.6737C27.7939 49.4139 28.8753 49.8391 30.5253 49.5857C33.0171 49.2031 34.0746 47.1842 33.7368 45.2921C33.4748 43.8245 32.5151 42.5861 31.3043 42.1432C30.2109 41.7433 28.3871 41.8168 25.9673 44.0834L23.5465 41.4991C26.6148 38.625 29.8005 37.8228 32.5206 38.8177C35.1234 39.7696 36.7811 42.1964 37.2227 44.6697C37.8729 48.3114 35.7243 52.3699 31.0627 53.0857C28.3771 53.4982 26.2831 52.7627 24.6399 51.3967C23.097 50.1142 22.0147 48.3225 21.1348 46.7723C20.9814 46.5019 20.8342 46.2394 20.6915 45.985C19.9545 44.6705 19.339 43.5727 18.6076 42.7253C17.8126 41.8041 17.077 41.4142 16.1167 41.4576C13.8624 41.5593 12.8064 42.4545 12.3275 43.3489C11.7987 44.3361 11.7716 45.697 12.2928 46.9715C12.8111 48.2391 13.7655 49.1662 14.881 49.4722C15.9349 49.7613 17.5389 49.6036 19.6251 47.8703L21.888 50.5939C19.169 52.853 16.4009 53.5609 13.9443 52.8871C11.5494 52.2302 9.85511 50.3658 9.01518 48.3117C8.1781 46.2646 8.0832 43.7736 9.20588 41.6772C10.3783 39.4878 12.6929 38.0675 15.9571 37.9202C18.3445 37.8124 20.0435 38.9693 21.2883 40.4117C22.2765 41.5566 23.0999 43.0317 23.8281 44.3362C23.9599 44.5722 24.0885 44.8026 24.2144 45.0244C25.103 46.5901 25.9126 47.85 26.9034 48.6737Z" fill="#FECE00"/>
<path fill-rule="evenodd" clip-rule="evenodd" d="M48.9979 14.252C46.6169 6.13286 38.0328 2.42718 30.2323 2.82957C26.0136 3.0472 21.8145 4.45043 18.6426 7.15095C15.6666 9.68472 13.6601 13.3101 13.3878 17.9636C8.81989 19.3977 5.73023 21.8245 3.74016 24.7595C1.62121 27.8846 0.829573 31.4653 0.679892 34.7686C0.530145 38.0733 1.01871 41.1803 1.53544 43.4443C1.79483 44.5807 2.06388 45.5158 2.2696 46.1709C2.37254 46.4987 2.45984 46.7571 2.52245 46.9363C2.55377 47.0259 2.57893 47.0958 2.59682 47.1447C2.60576 47.1692 2.61289 47.1884 2.61806 47.2023C2.73802 47.5221 2.8611 47.8408 2.98266 48.16H6.67438V45.2646H5.01979C4.83493 44.6729 4.59271 43.8274 4.3582 42.8C3.8768 40.6908 3.43819 37.8587 3.57228 34.8997C3.70643 31.9391 4.40963 28.9313 6.13657 26.3844C7.84478 23.8651 10.6353 21.6759 15.1788 20.4576L16.2515 20.17V19.0593C16.2515 14.7291 17.9566 11.5376 20.5196 9.35553C23.1164 7.14467 26.6688 5.9126 30.3814 5.72108C37.9165 5.33238 45.2776 9.16646 46.5406 16.4526L46.8604 18.2974L48.5653 17.5236C49.3785 17.1545 50.1668 16.8915 50.9262 16.7206L50.2905 13.8959C49.8621 13.9923 49.4311 14.1108 48.9979 14.252ZM66.962 28.727C66.913 27.4608 66.7189 26.2043 66.3955 24.9894L63.5976 25.7341C63.9128 26.9187 64.0789 28.1427 64.0789 29.3614V29.9968L64.5465 30.427C66.8321 32.5292 67.8802 34.4965 68.2652 36.2081C68.6509 37.9232 68.4006 39.515 67.8647 40.9122C67.3246 42.3203 66.5032 43.5035 65.7995 44.3454C65.4709 44.7385 65.1748 45.049 64.9569 45.2646H40.1016V48.16H66.0557C66.2399 48.0045 66.4269 47.8523 66.6057 47.6905C66.6886 47.6156 66.8035 47.5089 66.943 47.3723C67.2217 47.0994 67.6012 46.7045 68.021 46.2023C68.8547 45.205 69.8782 43.7475 70.568 41.9491C71.262 40.1398 71.6267 37.9595 71.09 35.5729C70.5843 33.3244 69.3049 31.0104 66.962 28.727Z" fill="#F8F9FC"/>
<path d="M60.1175 18.3348V20.4468H58.6698V18.3792C58.2861 18.146 58.0298 17.724 58.0298 17.2422C58.0298 16.5078 58.6251 15.9125 59.3595 15.9125C60.0938 15.9125 60.6891 16.5078 60.6891 17.2422C60.6891 17.6948 60.463 18.0946 60.1175 18.3348Z" fill="#F8F9FC"/>
<path fill-rule="evenodd" clip-rule="evenodd" d="M54.0958 12.9004C54.0958 4.34856 54.0958 11.2621 54.0959 11.2446C54.096 11.239 54.0961 11.2326 54.0962 11.2253C54.0965 11.2108 54.097 11.1929 54.0978 11.1719C54.0995 11.1298 54.1027 11.0749 54.1084 11.0089C54.1197 10.8773 54.1416 10.6993 54.1839 10.4899C54.2676 10.0752 54.4366 9.5111 54.7838 8.93758C55.5254 7.71294 56.9529 6.6599 59.4105 6.6599C61.8705 6.6599 63.2799 7.71743 63.9873 8.96876C64.3159 9.55006 64.4632 10.1199 64.5305 10.5361C64.5645 10.7466 64.5793 10.9253 64.5854 11.0571C64.5884 11.1232 64.5894 11.1782 64.5894 11.2203C64.5894 11.2414 64.5891 11.2593 64.5888 11.2738L64.5888 11.2742V12.9004H65.9342V23.2885H52.6482V12.9004H54.0958ZM56.5086 12.9004V11.2697L56.5087 11.2692C56.509 11.2616 56.5099 11.2436 56.5122 11.2168C56.5168 11.1628 56.5271 11.0758 56.549 10.9673C56.5937 10.7458 56.6815 10.4619 56.8477 10.1873C57.1332 9.71582 57.7599 9.0727 59.4105 9.0727C61.0588 9.0727 61.6354 9.71133 61.8869 10.1562C62.0377 10.4229 62.1131 10.7012 62.1486 10.9211C62.166 11.0286 62.1727 11.1149 62.1752 11.1687C62.1764 11.1953 62.1766 11.2131 62.1766 11.2207V11.2212L62.176 11.2344V12.9004H56.5086ZM54.8197 21.117V15.0719H63.7627V21.117H54.8197Z" fill="#F8F9FC"/>
</svg>
