<svg width="117" height="56" viewBox="0 0 117 56" fill="none" xmlns="http://www.w3.org/2000/svg">
<path d="M22.5366 19.3433C22.5366 13.2787 22.5412 7.2142 22.5275 1.14966C22.5275 0.73409 22.6279 0.610789 23.0572 0.615356C25.8885 0.633622 28.7199 0.606223 31.5512 0.633623C32.871 0.647323 34.1816 0.811723 35.4283 1.30036C38.4104 2.46486 40.0909 4.8852 40.1046 8.14123C40.132 15.3885 40.1594 22.6404 40.1274 29.8877C40.1183 32.1345 39.4835 34.2032 37.803 35.8199C36.4147 37.1579 34.7068 37.8383 32.8299 37.989C29.5053 38.2539 26.1671 38.0393 22.8334 38.0986C22.6188 38.1032 22.5183 38.0347 22.5366 37.8109C22.5457 37.7059 22.5366 37.5963 22.5366 37.4867C22.5366 31.4404 22.5366 25.3941 22.5366 19.3433ZM26.8612 19.2702C26.8612 24.1018 26.8658 28.9379 26.8521 33.7694C26.8521 34.1347 26.9206 34.2809 27.327 34.2717C28.6331 34.2443 29.9437 34.258 31.2498 34.2626C31.8709 34.2626 32.4783 34.1667 33.0491 33.9201C34.9214 33.1072 35.6612 31.5683 35.6658 29.6366C35.6841 22.7089 35.6749 15.7858 35.6704 8.8582C35.6704 6.19583 33.9761 4.46506 31.3092 4.4057C30.0031 4.37373 28.6925 4.41026 27.3864 4.38286C26.9663 4.37373 26.8521 4.4879 26.8521 4.9126C26.8704 9.6939 26.8612 14.4843 26.8612 19.2702Z" fill="#8F96A3"/>
<path d="M47.7307 19.4712C47.7307 15.6854 47.6804 11.8997 47.7444 8.1139C47.8129 4.15459 50.5026 1.00359 54.3935 0.259218C56.8595 -0.211149 59.2935 -0.101549 61.5677 1.09035C63.609 2.15895 64.8877 3.84406 65.3215 6.11826C65.4494 6.78956 65.4813 7.4837 65.4722 8.17326C65.4539 9.251 65.4585 10.3287 65.4722 11.4065C65.4768 11.7033 65.3946 11.8038 65.0886 11.7992C64.0109 11.7809 62.9331 11.7855 61.86 11.7992C61.5768 11.8038 61.4901 11.717 61.4946 11.4339C61.5083 10.3424 61.5038 9.24643 61.4992 8.155C61.4946 5.54743 59.8689 3.85319 57.2568 3.73446C56.3571 3.69336 55.4758 3.75272 54.6355 4.12719C53.2837 4.73456 52.6079 5.84426 52.2517 7.2234C52.0964 7.8262 52.0827 8.429 52.0827 9.04093C52.0827 16.0142 52.069 22.9876 52.0919 29.9563C52.0964 31.7008 52.6216 33.2489 54.2382 34.185C55.3936 34.8563 56.6631 34.9203 57.9509 34.7193C59.9146 34.4088 60.9603 33.4087 61.3439 31.477C61.4353 31.0158 61.4672 30.5363 61.4672 30.0613C61.4809 27.4903 61.4672 24.9193 61.4809 22.3482C61.4855 21.9692 61.3896 21.8505 60.9969 21.8596C59.6451 21.8824 58.2888 21.855 56.9371 21.8779C56.5809 21.8824 56.4941 21.7728 56.5033 21.4303C56.5261 20.5398 56.5215 19.6448 56.5033 18.7542C56.4987 18.462 56.5672 18.3524 56.8823 18.3524C59.6497 18.3615 62.4217 18.3615 65.1891 18.3524C65.4676 18.3524 65.559 18.43 65.559 18.7177C65.5453 22.9191 65.632 27.125 65.5133 31.3217C65.4265 34.4819 63.5633 37.0712 60.3575 38.085C57.7454 38.9115 55.1104 38.8385 52.5531 37.8338C49.8496 36.7698 48.338 34.7102 47.822 31.8789C47.7215 31.3309 47.717 30.7829 47.717 30.2303C47.7124 26.6455 47.717 23.0561 47.717 19.4712C47.7261 19.4712 47.7307 19.4712 47.7307 19.4712Z" fill="#8F96A3"/>
<path d="M0.00913356 19.316C0.00913356 13.2697 0.0137 7.21889 0 1.17261C0 0.729646 0.105033 0.615479 0.552567 0.615479C5.15121 0.633745 9.74985 0.62918 14.3485 0.620046C14.7549 0.620046 14.9102 0.697679 14.8919 1.14521C14.8554 2.05398 14.8645 2.96275 14.8874 3.86695C14.8965 4.22772 14.796 4.33275 14.4307 4.33275C11.2477 4.31905 8.06018 4.33275 4.87721 4.31449C4.47534 4.31449 4.32921 4.38755 4.33377 4.83509C4.35204 8.60716 4.35204 12.3747 4.33834 16.1467C4.33834 16.5303 4.43881 16.6354 4.82241 16.6354C7.27015 16.6171 9.71332 16.6262 12.1611 16.6262C12.7776 16.6262 12.7776 16.6308 12.7776 17.229C12.7776 18.0921 12.7776 18.9507 12.7776 19.8138C12.7776 20.3937 12.7776 20.3983 12.1702 20.3983C9.72245 20.3983 7.27928 20.4074 4.83154 20.3892C4.46164 20.3846 4.33377 20.4622 4.33834 20.8641C4.35204 25.1751 4.35204 29.4814 4.33834 33.7924C4.33834 34.176 4.43881 34.281 4.82241 34.281C8.02365 34.2673 11.2203 34.281 14.4216 34.2627C14.8463 34.2627 14.9741 34.3769 14.9604 34.8016C14.9285 35.7697 14.9422 36.7424 14.9559 37.7106C14.9604 37.9983 14.8965 38.117 14.5768 38.117C9.84118 38.1079 5.10097 38.1033 0.365334 38.117C-0.0776338 38.117 0.00913356 37.8567 0.00913356 37.6055C0.00913356 31.5045 0.00913356 25.4125 0.00913356 19.316Z" fill="#8F96A3"/>
<path d="M81.8623 16.6535C82.3966 14.8908 82.9263 13.1418 83.4515 11.3973C84.5019 7.91292 85.5522 4.42855 86.5888 0.939607C86.6619 0.68844 86.7669 0.59254 87.0318 0.597107C88.1552 0.610807 89.2786 0.615373 90.402 0.597107C90.7856 0.59254 90.7902 0.724975 90.6851 1.03551C89.7353 3.90795 88.7945 6.78495 87.8538 9.66196C86.5112 13.7628 85.1732 17.8683 83.826 21.9691C83.7529 22.1929 83.7392 22.4167 83.7392 22.6496C83.7392 27.6364 83.7346 32.6232 83.7483 37.61C83.7483 38.0164 83.6524 38.1306 83.2414 38.1215C82.118 38.0895 80.9946 38.0941 79.8712 38.1215C79.4831 38.1306 79.3872 38.0119 79.3917 37.6328C79.4054 32.6004 79.4009 27.5679 79.4009 22.5354C79.4009 22.2705 79.378 22.0194 79.2913 21.7636C77.387 16.0873 75.4872 10.4063 73.5875 4.72538C73.1765 3.50151 72.7792 2.27308 72.3591 1.05377C72.2403 0.71584 72.2723 0.592541 72.6696 0.601674C73.8843 0.619941 75.0991 0.624507 76.3138 0.597107C76.6791 0.587973 76.8116 0.724974 76.912 1.04921C78.4738 6.06342 80.0448 11.0731 81.6203 16.0873C81.6796 16.2699 81.6979 16.4754 81.8623 16.6535Z" fill="#8F96A3"/>
<path d="M106.961 44.1951C103.796 44.1951 100.627 44.1906 97.4621 44.2043C97.0831 44.2043 96.9552 44.1084 96.9735 43.7202C97.0055 42.985 97.0055 42.2452 96.9918 41.5054C96.9872 41.1948 97.0922 41.1172 97.3891 41.1172C98.928 41.1309 100.462 41.1218 102.001 41.1218C106.764 41.1218 111.532 41.1218 116.295 41.1218C116.989 41.1218 116.893 41.0441 116.898 41.7428C116.902 42.405 116.875 43.0672 116.907 43.7248C116.93 44.1266 116.784 44.1997 116.414 44.1997C113.263 44.186 110.112 44.1951 106.961 44.1951Z" fill="#8F96A3"/>
<path d="M2.11474 53.9141C1.69063 53.9141 1.313 53.8153 0.999272 53.612C0.679736 53.4087 0.435729 53.124 0.261437 52.758C0.0871443 52.3861 0 51.9446 0 51.4275C0 50.9047 0.0871443 50.4573 0.261437 50.0913C0.435729 49.7195 0.685546 49.4406 0.999272 49.2431C1.31881 49.0455 1.69063 48.9468 2.11474 48.9468C2.55048 48.9468 2.9223 49.0572 3.23602 49.2779C3.54975 49.4987 3.7589 49.795 3.86347 50.1726H3.74728L3.85186 49.0339H4.5955C4.57807 49.2198 4.56065 49.4057 4.54322 49.5917C4.52579 49.7776 4.51998 49.9635 4.51998 50.1436V53.8328H3.74728V52.7057H3.85186C3.74728 53.0833 3.53813 53.3796 3.21859 53.5946C2.90487 53.8037 2.53305 53.9141 2.11474 53.9141ZM2.26579 53.2867C2.72476 53.2867 3.08497 53.1298 3.35222 52.8161C3.61947 52.5023 3.75309 52.0434 3.75309 51.4333C3.75309 50.8233 3.61947 50.3585 3.35222 50.0448C3.08497 49.7311 2.71895 49.5742 2.26579 49.5742C1.81264 49.5742 1.45243 49.7311 1.17938 50.0448C0.906319 50.3585 0.772692 50.8233 0.772692 51.4333C0.772692 52.0376 0.906319 52.4965 1.17938 52.8161C1.45243 53.1356 1.81264 53.2867 2.26579 53.2867Z" fill="#8F96A3"/>
<path d="M10.6262 53.9256C10.1324 53.9256 9.69663 53.8269 9.32481 53.6177C8.95299 53.4144 8.6625 53.1239 8.45916 52.7404C8.25582 52.3628 8.15125 51.9096 8.15125 51.3868C8.15125 50.8639 8.25582 50.4165 8.45916 50.0505C8.66831 49.6787 8.95299 49.3998 9.32481 49.2023C9.69663 49.0048 10.1266 48.906 10.6262 48.906C10.9457 48.906 11.2536 48.9583 11.5558 49.0512C11.8579 49.15 12.1019 49.2895 12.2936 49.4754L11.9334 50.3062C11.7591 50.1493 11.5674 50.0273 11.3582 49.9459C11.1433 49.8646 10.9341 49.8239 10.7308 49.8239C10.3008 49.8239 9.96969 49.9576 9.7315 50.2248C9.4933 50.4921 9.37129 50.8813 9.37129 51.3926C9.37129 51.9038 9.4933 52.2931 9.7315 52.5661C9.96969 52.8392 10.3008 52.9786 10.7308 52.9786C10.9283 52.9786 11.1316 52.938 11.3466 52.8624C11.5616 52.7869 11.7533 52.6707 11.9334 52.508L12.2936 53.3272C12.0961 53.5131 11.8462 53.6584 11.5441 53.7571C11.2478 53.8733 10.9399 53.9256 10.6262 53.9256Z" fill="#8F96A3"/>
<path d="M15.4017 53.9256C14.9021 53.9256 14.4779 53.8269 14.1119 53.6177C13.7517 53.4144 13.4671 53.1239 13.2637 52.7462C13.0604 52.3686 12.9616 51.9271 12.9616 51.41C12.9616 50.8929 13.0604 50.4514 13.2637 50.0796C13.4671 49.7078 13.7459 49.4173 14.1119 49.2139C14.4779 49.0106 14.9021 48.906 15.4017 48.906C15.9013 48.906 16.3313 49.0106 16.6973 49.2139C17.0633 49.4173 17.348 49.7078 17.5455 50.0796C17.7488 50.4514 17.8476 50.8987 17.8476 51.41C17.8476 51.9271 17.7488 52.3744 17.5455 52.7462C17.3422 53.1239 17.0633 53.4144 16.6973 53.6177C16.3313 53.821 15.9013 53.9256 15.4017 53.9256ZM15.4017 53.0077C15.7793 53.0077 16.0756 52.8741 16.3022 52.6126C16.523 52.3512 16.6392 51.9503 16.6392 51.4158C16.6392 50.8813 16.5288 50.4804 16.3022 50.219C16.0814 49.9576 15.7793 49.8298 15.4017 49.8298C15.0241 49.8298 14.7278 49.9576 14.5012 50.219C14.2804 50.4804 14.1642 50.8813 14.1642 51.4158C14.1642 51.9503 14.2746 52.3512 14.5012 52.6126C14.7278 52.8741 15.0299 53.0077 15.4017 53.0077Z" fill="#8F96A3"/>
<path d="M18.8822 53.8271V50.2076C18.8822 50.0101 18.8764 49.8067 18.8648 49.6034C18.8532 49.4 18.8358 49.1967 18.8067 48.9992H19.9628L20.0558 49.952H19.9396C20.0732 49.6208 20.2766 49.3652 20.5554 49.1793C20.8343 48.9933 21.1596 48.9004 21.5431 48.9004C21.9265 48.9004 22.2403 48.9933 22.4959 49.1734C22.7457 49.3536 22.9258 49.6382 23.0246 50.0217H22.8735C23.0071 49.6789 23.2279 49.4058 23.53 49.2025C23.8379 48.9992 24.1865 48.9004 24.5816 48.9004C25.1219 48.9004 25.5286 49.0573 25.7958 49.3768C26.0631 49.6963 26.1967 50.1902 26.1967 50.8699V53.8212H25.0057V50.9164C25.0057 50.5329 24.9418 50.2599 24.814 50.0914C24.6862 49.9229 24.4828 49.8358 24.204 49.8358C23.8728 49.8358 23.6114 49.952 23.4196 50.1843C23.2279 50.4167 23.135 50.7305 23.135 51.1255V53.8212H21.9382V50.9164C21.9382 50.5329 21.8742 50.2599 21.7464 50.0914C21.6186 49.9229 21.4153 49.8358 21.1364 49.8358C20.8053 49.8358 20.5438 49.952 20.3579 50.1843C20.172 50.4167 20.0732 50.7305 20.0732 51.1255V53.8212H18.8822V53.8271Z" fill="#8F96A3"/>
<path d="M27.4688 55.8895V50.2076C27.4688 50.0101 27.463 49.8067 27.4514 49.6034C27.4398 49.4 27.4224 49.1967 27.3933 48.9992H28.5495L28.654 50.0101H28.5495C28.6424 49.6731 28.8457 49.4058 29.1537 49.2025C29.4616 48.9992 29.8218 48.9004 30.2285 48.9004C30.6526 48.9004 31.0302 48.9992 31.3439 49.2025C31.6635 49.4058 31.9133 49.6905 32.0876 50.0623C32.2677 50.4342 32.3548 50.8815 32.3548 51.4044C32.3548 51.9273 32.2677 52.3746 32.0876 52.7523C31.9075 53.1299 31.6635 53.4146 31.3439 53.6179C31.0244 53.8212 30.6526 53.92 30.2285 53.92C29.8276 53.92 29.4732 53.8212 29.1653 53.6237C28.8574 53.4262 28.654 53.1647 28.5553 52.8336H28.6598V55.8895H27.4688ZM29.8973 53.0079C30.2807 53.0079 30.5829 52.8743 30.8152 52.6128C31.0476 52.3514 31.158 51.9505 31.158 51.416C31.158 50.8815 31.0418 50.4806 30.8152 50.2192C30.5887 49.9578 30.2807 49.83 29.8973 49.83C29.5197 49.83 29.2176 49.9578 28.991 50.2192C28.7586 50.4806 28.6482 50.8815 28.6482 51.416C28.6482 51.9505 28.7644 52.3514 28.991 52.6128C29.2176 52.8743 29.5197 53.0079 29.8973 53.0079Z" fill="#8F96A3"/>
<path d="M35.2529 53.9256C34.8346 53.9256 34.4628 53.8269 34.1433 53.6235C33.8237 53.4202 33.5739 53.1355 33.3996 52.7579C33.2195 52.3802 33.1324 51.9329 33.1324 51.41C33.1324 50.8871 33.2195 50.4398 33.3996 50.068C33.5797 49.6961 33.8237 49.4056 34.1433 49.2081C34.4628 49.0048 34.8288 48.906 35.2529 48.906C35.6596 48.906 36.0198 49.0048 36.3277 49.2081C36.6357 49.4115 36.8448 49.6787 36.9436 50.0157H36.839L36.9436 49.0048H38.0881C38.0707 49.2023 38.0532 49.4056 38.0358 49.609C38.0184 49.8123 38.0126 50.0157 38.0126 50.2132V53.8327H36.8274L36.8158 52.8392H36.932C36.8274 53.1704 36.624 53.4318 36.3103 53.6293C36.0024 53.8269 35.648 53.9256 35.2529 53.9256ZM35.5899 53.0077C35.9675 53.0077 36.2696 52.8741 36.4962 52.6126C36.7228 52.3512 36.839 51.9503 36.839 51.4158C36.839 50.8813 36.7228 50.4804 36.4962 50.219C36.2638 49.9576 35.9617 49.8298 35.5899 49.8298C35.2123 49.8298 34.9102 49.9576 34.6836 50.219C34.4512 50.4804 34.3408 50.8813 34.3408 51.4158C34.3408 51.9503 34.4512 52.3512 34.6778 52.6126C34.9044 52.8741 35.2065 53.0077 35.5899 53.0077Z" fill="#8F96A3"/>
<path d="M41.0344 53.9257C40.6219 53.9257 40.2385 53.8792 39.8899 53.7804C39.5413 53.6817 39.2508 53.5422 39.0184 53.3621L39.3554 52.5604C39.5994 52.7231 39.8667 52.8509 40.1571 52.9438C40.4476 53.031 40.7439 53.0774 41.046 53.0774C41.3656 53.0774 41.6038 53.0252 41.7606 52.9148C41.9175 52.8044 41.993 52.6591 41.993 52.4732C41.993 52.328 41.9407 52.2118 41.8478 52.1246C41.749 52.0375 41.5921 51.9736 41.3772 51.9271L40.4244 51.747C40.0177 51.6599 39.704 51.503 39.4948 51.288C39.2799 51.0731 39.1753 50.7884 39.1753 50.4398C39.1753 50.1377 39.2566 49.8763 39.4193 49.6497C39.582 49.4173 39.8144 49.243 40.1165 49.1094C40.4186 48.9816 40.773 48.9119 41.1796 48.9119C41.534 48.9119 41.871 48.9583 42.1847 49.0571C42.4985 49.1501 42.7657 49.2953 42.9807 49.487L42.6379 50.2597C42.4404 50.1029 42.2138 49.975 41.9582 49.8879C41.7025 49.8008 41.4527 49.7543 41.2145 49.7543C40.8834 49.7543 40.6394 49.8124 40.4883 49.9286C40.3372 50.0448 40.2559 50.1958 40.2559 50.3817C40.2559 50.5212 40.3024 50.6374 40.3953 50.7303C40.4883 50.8233 40.6335 50.893 40.8311 50.9337L41.7839 51.1138C42.208 51.1951 42.5333 51.3403 42.7541 51.5495C42.9749 51.7586 43.0853 52.0375 43.0853 52.3977C43.0853 52.7172 42.9981 52.9903 42.8296 53.2169C42.6553 53.4493 42.4171 53.6236 42.115 53.7398C41.8013 53.8618 41.4411 53.9257 41.0344 53.9257Z" fill="#8F96A3"/>
<path d="M45.8212 53.9257C45.4087 53.9257 45.0253 53.8792 44.6767 53.7804C44.3281 53.6817 44.0376 53.5422 43.8052 53.3621L44.1422 52.5604C44.3862 52.7231 44.6535 52.8509 44.9439 52.9438C45.2344 53.031 45.5307 53.0774 45.8328 53.0774C46.1524 53.0774 46.3906 53.0252 46.5474 52.9148C46.7043 52.8044 46.7798 52.6591 46.7798 52.4732C46.7798 52.328 46.7275 52.2118 46.6346 52.1246C46.5358 52.0375 46.379 51.9736 46.164 51.9271L45.2112 51.747C44.8045 51.6599 44.4908 51.503 44.2816 51.288C44.0667 51.0731 43.9621 50.7884 43.9621 50.4398C43.9621 50.1377 44.0434 49.8763 44.2061 49.6497C44.3688 49.4173 44.6012 49.243 44.9033 49.1094C45.2054 48.9816 45.5598 48.9119 45.9665 48.9119C46.3209 48.9119 46.6578 48.9583 46.9715 49.0571C47.2853 49.1501 47.5525 49.2953 47.7675 49.487L47.4247 50.2597C47.2272 50.1029 47.0006 49.975 46.745 49.8879C46.4893 49.8008 46.2395 49.7543 46.0013 49.7543C45.6702 49.7543 45.4262 49.8124 45.2751 49.9286C45.124 50.0448 45.0427 50.1958 45.0427 50.3817C45.0427 50.5212 45.0892 50.6374 45.1822 50.7303C45.2751 50.8233 45.4204 50.893 45.6179 50.9337L46.5707 51.1138C46.9948 51.1951 47.3201 51.3403 47.5409 51.5495C47.7617 51.7586 47.8721 52.0375 47.8721 52.3977C47.8721 52.7172 47.7849 52.9903 47.6164 53.2169C47.4421 53.4493 47.2039 53.6236 46.9018 53.7398C46.5823 53.8618 46.2279 53.9257 45.8212 53.9257Z" fill="#8F96A3"/>
<path d="M48.7551 53.827V52.4966H50.0914V53.827H48.7551Z" fill="#8F96A3"/>
<path d="M52.9963 53.9257C52.4037 53.9257 51.9621 53.763 51.6658 53.4377C51.3754 53.1123 51.2243 52.6185 51.2243 51.9446V48.999H52.4211V51.9329C52.4211 52.2873 52.4966 52.5546 52.6419 52.7231C52.7871 52.8915 53.0137 52.9787 53.31 52.9787C53.647 52.9787 53.92 52.8625 54.135 52.6359C54.3499 52.4093 54.4545 52.1014 54.4545 51.7296V49.0048H55.6455V53.8269H54.4778V52.8451H54.6114C54.472 53.1878 54.257 53.4551 53.9781 53.641C53.6993 53.8327 53.3681 53.9257 52.9963 53.9257Z" fill="#8F96A3"/>
<path d="M59.1253 53.9256C58.6257 53.9256 58.2016 53.8269 57.8356 53.6177C57.4754 53.4144 57.1907 53.1239 56.9874 52.7462C56.784 52.3686 56.6852 51.9271 56.6852 51.41C56.6852 50.8929 56.784 50.4514 56.9874 50.0796C57.1907 49.7078 57.4696 49.4173 57.8356 49.2139C58.2016 49.0106 58.6257 48.906 59.1253 48.906C59.625 48.906 60.0549 49.0106 60.4209 49.2139C60.7869 49.4173 61.0716 49.7078 61.2691 50.0796C61.4725 50.4514 61.5712 50.8987 61.5712 51.41C61.5712 51.9271 61.4725 52.3744 61.2691 52.7462C61.0658 53.1239 60.7869 53.4144 60.4209 53.6177C60.0549 53.821 59.625 53.9256 59.1253 53.9256ZM59.1253 53.0077C59.503 53.0077 59.7993 52.8741 60.0258 52.6126C60.2466 52.3512 60.3628 51.9503 60.3628 51.4158C60.3628 50.8813 60.2524 50.4804 60.0258 50.219C59.8051 49.9576 59.503 49.8298 59.1253 49.8298C58.7477 49.8298 58.4514 49.9576 58.2248 50.219C58.0041 50.4804 57.8879 50.8813 57.8879 51.4158C57.8879 51.9503 57.9982 52.3512 58.2248 52.6126C58.4514 52.8741 58.7535 53.0077 59.1253 53.0077Z" fill="#8F96A3"/>
<path d="M62.605 53.8269V46.7971H63.8018V53.8269H62.605Z" fill="#8F96A3"/>
<path d="M69.7113 53.9141C69.2407 53.9141 68.8282 53.8153 68.4855 53.6062C68.1369 53.4029 67.8696 53.1124 67.6837 52.7347C67.4978 52.3571 67.399 51.9156 67.399 51.3985C67.399 50.8756 67.492 50.4341 67.6837 50.0681C67.8754 49.702 68.1427 49.4232 68.4913 49.2315C68.8399 49.0397 69.2465 48.9468 69.7113 48.9468C70.0192 48.9468 70.3155 48.9991 70.606 49.1094C70.8965 49.2198 71.1347 49.3709 71.3264 49.5684L71.0476 50.1203C70.8558 49.9344 70.6467 49.8008 70.4201 49.7079C70.1935 49.6207 69.9728 49.5742 69.7578 49.5742C69.2582 49.5742 68.8747 49.7311 68.6017 50.0448C68.3286 50.3585 68.1892 50.8117 68.1892 51.4101C68.1892 52.0027 68.3286 52.4617 68.6017 52.787C68.8747 53.1124 69.2582 53.275 69.7578 53.275C69.9669 53.275 70.1877 53.2344 70.4143 53.153C70.6409 53.0717 70.85 52.9323 71.0476 52.7405L71.3264 53.2867C71.1289 53.49 70.8849 53.6469 70.5886 53.7572C70.2981 53.8618 70.0076 53.9141 69.7113 53.9141Z" fill="#8F96A3"/>
<path d="M74.3934 53.9141C73.9344 53.9141 73.5335 53.8153 73.1966 53.6119C72.8538 53.4086 72.5923 53.1239 72.4064 52.7521C72.2205 52.3803 72.1276 51.9387 72.1276 51.4275C72.1276 50.9104 72.2205 50.4689 72.4064 50.0971C72.5923 49.7252 72.8538 49.4406 73.1966 49.243C73.5393 49.0397 73.9344 48.9409 74.3934 48.9409C74.8581 48.9409 75.259 49.0397 75.6018 49.243C75.9446 49.4464 76.206 49.731 76.3919 50.0971C76.5778 50.4689 76.6766 50.9104 76.6766 51.4275C76.6766 51.9387 76.5836 52.3803 76.3919 52.7521C76.206 53.1239 75.9387 53.4144 75.6018 53.6119C75.259 53.8153 74.8581 53.9141 74.3934 53.9141ZM74.3934 53.2866C74.8523 53.2866 75.2125 53.1297 75.4798 52.816C75.747 52.5023 75.8807 52.0433 75.8807 51.4333C75.8807 50.8233 75.747 50.3585 75.4798 50.0448C75.2125 49.731 74.8465 49.5742 74.3934 49.5742C73.9402 49.5742 73.58 49.731 73.3128 50.0448C73.0455 50.3585 72.9119 50.8233 72.9119 51.4333C72.9119 52.0375 73.0455 52.4965 73.3128 52.816C73.58 53.1356 73.9402 53.2866 74.3934 53.2866Z" fill="#8F96A3"/>
<path d="M77.8795 53.8269V50.1377C77.8795 49.9576 77.8737 49.7775 77.8563 49.5858C77.8389 49.3999 77.8214 49.214 77.804 49.0281H78.5477L78.6406 50.0796H78.5244C78.6522 49.7136 78.8556 49.4347 79.1286 49.2372C79.4075 49.0397 79.7445 48.9409 80.1337 48.9409C80.5346 48.9409 80.8599 49.0339 81.1156 49.2256C81.3654 49.4173 81.5397 49.7136 81.6268 50.1145H81.4816C81.6036 49.7543 81.8185 49.4638 82.1206 49.2546C82.4286 49.0455 82.783 48.9409 83.1896 48.9409C83.7183 48.9409 84.1134 49.092 84.3806 49.3941C84.6479 49.6962 84.7815 50.1726 84.7815 50.8233V53.8211H84.0088V50.8698C84.0088 50.4166 83.9275 50.0854 83.7706 49.8821C83.6138 49.6729 83.3581 49.5742 83.0095 49.5742C82.6087 49.5742 82.2891 49.7136 82.0567 49.9925C81.8244 50.2714 81.7082 50.6432 81.7082 51.108V53.8327H80.9355V50.8814C80.9355 50.4282 80.8541 50.0971 80.6973 49.8937C80.5404 49.6846 80.2848 49.5858 79.9304 49.5858C79.5295 49.5858 79.2158 49.7252 78.9834 50.0041C78.7568 50.283 78.6406 50.6548 78.6406 51.1196V53.8443H77.8795V53.8269Z" fill="#8F96A3"/>
<path d="M86.2695 55.8894V50.1377C86.2695 49.9576 86.2637 49.7775 86.2463 49.5858C86.2288 49.3999 86.2114 49.214 86.194 49.0281H86.9376L87.0422 50.1668H86.926C87.0248 49.7891 87.2339 49.4928 87.5476 49.2721C87.8614 49.0513 88.2332 48.9409 88.6631 48.9409C89.093 48.9409 89.4707 49.0397 89.7844 49.2372C90.0981 49.4347 90.3479 49.7194 90.5222 50.0854C90.7023 50.4573 90.7895 50.8988 90.7895 51.4217C90.7895 51.9387 90.7023 52.3803 90.528 52.7521C90.3537 53.1239 90.1039 53.4086 89.7902 53.6061C89.4707 53.8095 89.093 53.9082 88.6631 53.9082C88.2332 53.9082 87.8672 53.7979 87.5534 53.5829C87.2397 53.3679 87.0364 53.0716 86.9318 52.694H87.0364V55.8836H86.2695V55.8894ZM88.512 53.2866C88.971 53.2866 89.337 53.1297 89.6043 52.816C89.8715 52.5023 90.011 52.0433 90.011 51.4333C90.011 50.8233 89.8773 50.3585 89.6043 50.0448C89.3312 49.731 88.971 49.5742 88.512 49.5742C88.0589 49.5742 87.6987 49.731 87.4256 50.0448C87.1526 50.3585 87.019 50.8233 87.019 51.4333C87.019 52.0375 87.1526 52.4965 87.4256 52.816C87.6987 53.1239 88.0647 53.2866 88.512 53.2866Z" fill="#8F96A3"/>
<path d="M93.8279 53.9141C93.4038 53.9141 93.0261 53.8153 92.7124 53.612C92.3929 53.4087 92.1489 53.124 91.9746 52.758C91.8003 52.3861 91.7131 51.9446 91.7131 51.4275C91.7131 50.9047 91.8003 50.4573 91.9746 50.0913C92.1489 49.7195 92.3987 49.4406 92.7124 49.2431C93.0319 49.0455 93.4038 48.9468 93.8279 48.9468C94.2636 48.9468 94.6354 49.0572 94.9491 49.2779C95.2629 49.4987 95.472 49.795 95.5766 50.1726H95.4604L95.565 49.0339H96.3086C96.2912 49.2198 96.2738 49.4057 96.2563 49.5917C96.2389 49.7776 96.2331 49.9635 96.2331 50.1436V53.8328H95.4604V52.7057H95.565C95.4604 53.0833 95.2513 53.3796 94.9317 53.5946C94.618 53.8037 94.2462 53.9141 93.8279 53.9141ZM93.9789 53.2867C94.4379 53.2867 94.7981 53.1298 95.0653 52.8161C95.3326 52.5023 95.4662 52.0434 95.4662 51.4333C95.4662 50.8233 95.3326 50.3585 95.0653 50.0448C94.7981 49.7311 94.4321 49.5742 93.9789 49.5742C93.5258 49.5742 93.1656 49.7311 92.8925 50.0448C92.6195 50.3585 92.4858 50.8233 92.4858 51.4333C92.4858 52.0376 92.6195 52.4965 92.8925 52.8161C93.1656 53.1356 93.5258 53.2867 93.9789 53.2867Z" fill="#8F96A3"/>
<path d="M97.7317 53.8269V50.1377C97.7317 49.9576 97.7258 49.7775 97.7084 49.5858C97.691 49.3999 97.6736 49.214 97.6561 49.0281H98.3998L98.4927 50.0796H98.3765C98.516 49.7078 98.7425 49.4289 99.0505 49.2314C99.3584 49.0397 99.7186 48.9409 100.125 48.9409C100.695 48.9409 101.119 49.092 101.409 49.3941C101.7 49.6962 101.845 50.1726 101.845 50.8233V53.8211H101.072V50.8698C101.072 50.4166 100.979 50.0854 100.799 49.8821C100.619 49.6729 100.334 49.5742 99.951 49.5742C99.5036 49.5742 99.1492 49.7136 98.8878 49.9867C98.6264 50.2597 98.4985 50.6257 98.4985 51.0847V53.8269H97.7317Z" fill="#8F96A3"/>
<path d="M103.139 55.9998L102.959 55.3607C103.261 55.291 103.511 55.2097 103.709 55.1167C103.912 55.0238 104.075 54.9018 104.208 54.7507C104.342 54.5997 104.458 54.4079 104.551 54.1756L104.801 53.612L104.784 53.9374L102.692 49.0339H103.534L105.266 53.246H105.016L106.724 49.0339H107.537L105.324 54.2337C105.196 54.5416 105.057 54.7972 104.906 55.0005C104.754 55.2097 104.592 55.3782 104.412 55.506C104.237 55.6338 104.046 55.7384 103.837 55.8139C103.616 55.8894 103.389 55.9533 103.139 55.9998Z" fill="#8F96A3"/>
</svg>
