<svg width="117" height="56" viewBox="0 0 117 56" fill="none" xmlns="http://www.w3.org/2000/svg">
<path d="M22.5366 19.3433C22.5366 13.2787 22.5412 7.2142 22.5275 1.14966C22.5275 0.73409 22.6279 0.610789 23.0572 0.615356C25.8885 0.633622 28.7199 0.606223 31.5512 0.633623C32.871 0.647323 34.1816 0.811723 35.4283 1.30036C38.4104 2.46486 40.0909 4.8852 40.1046 8.14123C40.132 15.3885 40.1594 22.6404 40.1274 29.8877C40.1183 32.1345 39.4835 34.2032 37.803 35.8199C36.4147 37.1579 34.7068 37.8383 32.8299 37.989C29.5053 38.2539 26.1671 38.0393 22.8334 38.0986C22.6188 38.1032 22.5183 38.0347 22.5366 37.8109C22.5457 37.7059 22.5366 37.5963 22.5366 37.4867C22.5366 31.4404 22.5366 25.3941 22.5366 19.3433ZM26.8612 19.2702C26.8612 24.1018 26.8658 28.9379 26.8521 33.7694C26.8521 34.1347 26.9206 34.2809 27.327 34.2717C28.6331 34.2443 29.9437 34.258 31.2498 34.2626C31.8709 34.2626 32.4783 34.1667 33.0491 33.9201C34.9214 33.1072 35.6612 31.5683 35.6658 29.6366C35.6841 22.7089 35.6749 15.7858 35.6704 8.8582C35.6704 6.19583 33.9761 4.46506 31.3092 4.4057C30.0031 4.37373 28.6925 4.41026 27.3864 4.38286C26.9663 4.37373 26.8521 4.4879 26.8521 4.9126C26.8704 9.6939 26.8612 14.4843 26.8612 19.2702Z" fill="white"/>
<path d="M47.7307 19.4712C47.7307 15.6854 47.6804 11.8997 47.7444 8.1139C47.8129 4.15459 50.5026 1.00359 54.3935 0.259218C56.8595 -0.211149 59.2935 -0.101549 61.5677 1.09035C63.609 2.15895 64.8877 3.84406 65.3215 6.11826C65.4494 6.78956 65.4813 7.4837 65.4722 8.17326C65.4539 9.251 65.4585 10.3287 65.4722 11.4065C65.4768 11.7033 65.3946 11.8038 65.0886 11.7992C64.0109 11.7809 62.9331 11.7855 61.86 11.7992C61.5768 11.8038 61.4901 11.717 61.4946 11.4339C61.5083 10.3424 61.5038 9.24643 61.4992 8.155C61.4946 5.54743 59.8689 3.85319 57.2568 3.73446C56.3571 3.69336 55.4758 3.75272 54.6355 4.12719C53.2837 4.73456 52.6079 5.84426 52.2517 7.2234C52.0964 7.8262 52.0827 8.429 52.0827 9.04093C52.0827 16.0142 52.069 22.9876 52.0919 29.9563C52.0964 31.7008 52.6216 33.2489 54.2382 34.185C55.3936 34.8563 56.6631 34.9203 57.9509 34.7193C59.9146 34.4088 60.9603 33.4087 61.3439 31.477C61.4353 31.0158 61.4672 30.5363 61.4672 30.0613C61.4809 27.4903 61.4672 24.9193 61.4809 22.3482C61.4855 21.9692 61.3896 21.8505 60.9969 21.8596C59.6451 21.8824 58.2888 21.855 56.9371 21.8779C56.5809 21.8824 56.4941 21.7728 56.5033 21.4303C56.5261 20.5398 56.5215 19.6448 56.5033 18.7542C56.4987 18.462 56.5672 18.3524 56.8823 18.3524C59.6497 18.3615 62.4217 18.3615 65.1891 18.3524C65.4676 18.3524 65.559 18.43 65.559 18.7177C65.5453 22.9191 65.632 27.125 65.5133 31.3217C65.4265 34.4819 63.5633 37.0712 60.3575 38.085C57.7454 38.9115 55.1104 38.8385 52.5531 37.8338C49.8496 36.7698 48.338 34.7102 47.822 31.8789C47.7215 31.3309 47.717 30.7829 47.717 30.2303C47.7124 26.6455 47.717 23.0561 47.717 19.4712C47.7261 19.4712 47.7307 19.4712 47.7307 19.4712Z" fill="white"/>
<path d="M0.00913356 19.3158C0.00913356 13.2695 0.0137 7.21865 0 1.17237C0 0.729402 0.105033 0.615234 0.552567 0.615234C5.15121 0.633501 9.74985 0.628935 14.3485 0.619802C14.7549 0.619802 14.9102 0.697434 14.8919 1.14497C14.8554 2.05374 14.8645 2.96251 14.8874 3.86671C14.8965 4.22748 14.796 4.33251 14.4307 4.33251C11.2477 4.31881 8.06018 4.33251 4.87721 4.31424C4.47534 4.31424 4.32921 4.38731 4.33377 4.83484C4.35204 8.60692 4.35204 12.3744 4.33834 16.1465C4.33834 16.5301 4.43881 16.6351 4.82241 16.6351C7.27015 16.6169 9.71332 16.626 12.1611 16.626C12.7776 16.626 12.7776 16.6306 12.7776 17.2288C12.7776 18.0919 12.7776 18.9504 12.7776 19.8135C12.7776 20.3935 12.7776 20.3981 12.1702 20.3981C9.72245 20.3981 7.27928 20.4072 4.83154 20.3889C4.46164 20.3844 4.33377 20.462 4.33834 20.8639C4.35204 25.1748 4.35204 29.4812 4.33834 33.7921C4.33834 34.1757 4.43881 34.2808 4.82241 34.2808C8.02365 34.2671 11.2203 34.2808 14.4216 34.2625C14.8463 34.2625 14.9741 34.3767 14.9604 34.8014C14.9285 35.7695 14.9422 36.7422 14.9559 37.7103C14.9604 37.998 14.8965 38.1168 14.5768 38.1168C9.84118 38.1076 5.10097 38.1031 0.365334 38.1168C-0.0776338 38.1168 0.00913356 37.8565 0.00913356 37.6053C0.00913356 31.5042 0.00913356 25.4123 0.00913356 19.3158Z" fill="white"/>
<path d="M81.8623 16.6535C82.3966 14.8908 82.9263 13.1418 83.4515 11.3973C84.5019 7.91292 85.5522 4.42855 86.5888 0.939607C86.6619 0.68844 86.7669 0.59254 87.0318 0.597107C88.1552 0.610807 89.2786 0.615373 90.402 0.597107C90.7856 0.59254 90.7902 0.724975 90.6851 1.03551C89.7353 3.90795 88.7945 6.78495 87.8538 9.66196C86.5112 13.7628 85.1732 17.8683 83.826 21.9691C83.7529 22.1929 83.7392 22.4167 83.7392 22.6496C83.7392 27.6364 83.7346 32.6232 83.7483 37.61C83.7483 38.0164 83.6524 38.1306 83.2414 38.1215C82.118 38.0895 80.9946 38.0941 79.8712 38.1215C79.4831 38.1306 79.3872 38.0119 79.3917 37.6328C79.4054 32.6004 79.4009 27.5679 79.4009 22.5354C79.4009 22.2705 79.378 22.0194 79.2913 21.7636C77.387 16.0873 75.4872 10.4063 73.5875 4.72538C73.1765 3.50151 72.7792 2.27308 72.3591 1.05377C72.2403 0.71584 72.2723 0.592541 72.6696 0.601674C73.8843 0.619941 75.0991 0.624507 76.3138 0.597107C76.6791 0.587973 76.8116 0.724974 76.912 1.04921C78.4738 6.06342 80.0448 11.0731 81.6203 16.0873C81.6796 16.2699 81.6979 16.4754 81.8623 16.6535Z" fill="white"/>
<path d="M106.961 44.1951C103.796 44.1951 100.627 44.1906 97.4621 44.2043C97.0831 44.2043 96.9552 44.1084 96.9735 43.7202C97.0055 42.985 97.0055 42.2452 96.9918 41.5054C96.9872 41.1948 97.0922 41.1172 97.3891 41.1172C98.928 41.1309 100.462 41.1218 102.001 41.1218C106.764 41.1218 111.532 41.1218 116.295 41.1218C116.989 41.1218 116.893 41.0441 116.898 41.7428C116.902 42.405 116.875 43.0672 116.907 43.7248C116.93 44.1266 116.784 44.1997 116.414 44.1997C113.263 44.186 110.112 44.1951 106.961 44.1951Z" fill="white"/>
<path d="M2.11474 53.9136C1.69063 53.9136 1.313 53.8149 0.999272 53.6115C0.679736 53.4082 0.435729 53.1235 0.261437 52.7575C0.0871443 52.3857 0 51.9441 0 51.4271C0 50.9042 0.0871443 50.4568 0.261437 50.0908C0.435729 49.719 0.685546 49.4401 0.999272 49.2426C1.31881 49.0451 1.69063 48.9463 2.11474 48.9463C2.55048 48.9463 2.9223 49.0567 3.23602 49.2774C3.54975 49.4982 3.7589 49.7945 3.86347 50.1721H3.74728L3.85186 49.0334H4.5955C4.57807 49.2193 4.56065 49.4053 4.54322 49.5912C4.52579 49.7771 4.51998 49.963 4.51998 50.1431V53.8323H3.74728V52.7052H3.85186C3.74728 53.0828 3.53813 53.3791 3.21859 53.5941C2.90487 53.8032 2.53305 53.9136 2.11474 53.9136ZM2.26579 53.2862C2.72476 53.2862 3.08497 53.1293 3.35222 52.8156C3.61947 52.5019 3.75309 52.0429 3.75309 51.4329C3.75309 50.8228 3.61947 50.3581 3.35222 50.0443C3.08497 49.7306 2.71895 49.5737 2.26579 49.5737C1.81264 49.5737 1.45243 49.7306 1.17938 50.0443C0.906319 50.3581 0.772692 50.8228 0.772692 51.4329C0.772692 52.0371 0.906319 52.496 1.17938 52.8156C1.45243 53.1351 1.81264 53.2862 2.26579 53.2862Z" fill="white"/>
<path d="M10.6262 53.9259C10.1324 53.9259 9.69663 53.8271 9.32481 53.6179C8.95299 53.4146 8.6625 53.1241 8.45916 52.7407C8.25582 52.363 8.15125 51.9099 8.15125 51.387C8.15125 50.8641 8.25582 50.4168 8.45916 50.0508C8.66831 49.6789 8.95299 49.4001 9.32481 49.2025C9.69663 49.005 10.1266 48.9062 10.6262 48.9062C10.9457 48.9062 11.2536 48.9585 11.5558 49.0515C11.8579 49.1503 12.1019 49.2897 12.2936 49.4756L11.9334 50.3064C11.7591 50.1495 11.5674 50.0275 11.3582 49.9462C11.1433 49.8649 10.9341 49.8242 10.7308 49.8242C10.3008 49.8242 9.96969 49.9578 9.7315 50.2251C9.4933 50.4923 9.37129 50.8816 9.37129 51.3928C9.37129 51.9041 9.4933 52.2933 9.7315 52.5664C9.96969 52.8394 10.3008 52.9789 10.7308 52.9789C10.9283 52.9789 11.1316 52.9382 11.3466 52.8627C11.5616 52.7872 11.7533 52.671 11.9334 52.5083L12.2936 53.3275C12.0961 53.5134 11.8462 53.6586 11.5441 53.7574C11.2478 53.8736 10.9399 53.9259 10.6262 53.9259Z" fill="white"/>
<path d="M15.4017 53.9259C14.9021 53.9259 14.4779 53.8271 14.1119 53.6179C13.7517 53.4146 13.4671 53.1241 13.2637 52.7465C13.0604 52.3689 12.9616 51.9273 12.9616 51.4102C12.9616 50.8932 13.0604 50.4516 13.2637 50.0798C13.4671 49.708 13.7459 49.4175 14.1119 49.2142C14.4779 49.0108 14.9021 48.9062 15.4017 48.9062C15.9013 48.9062 16.3313 49.0108 16.6973 49.2142C17.0633 49.4175 17.348 49.708 17.5455 50.0798C17.7488 50.4516 17.8476 50.899 17.8476 51.4102C17.8476 51.9273 17.7488 52.3747 17.5455 52.7465C17.3422 53.1241 17.0633 53.4146 16.6973 53.6179C16.3313 53.8213 15.9013 53.9259 15.4017 53.9259ZM15.4017 53.0079C15.7793 53.0079 16.0756 52.8743 16.3022 52.6129C16.523 52.3514 16.6392 51.9506 16.6392 51.4161C16.6392 50.8816 16.5288 50.4807 16.3022 50.2193C16.0814 49.9578 15.7793 49.83 15.4017 49.83C15.0241 49.83 14.7278 49.9578 14.5012 50.2193C14.2804 50.4807 14.1642 50.8816 14.1642 51.4161C14.1642 51.9506 14.2746 52.3514 14.5012 52.6129C14.7278 52.8743 15.0299 53.0079 15.4017 53.0079Z" fill="white"/>
<path d="M18.8822 53.8271V50.2076C18.8822 50.0101 18.8764 49.8067 18.8648 49.6034C18.8532 49.4 18.8358 49.1967 18.8067 48.9992H19.9628L20.0558 49.952H19.9396C20.0732 49.6208 20.2766 49.3652 20.5554 49.1793C20.8343 48.9933 21.1596 48.9004 21.5431 48.9004C21.9265 48.9004 22.2403 48.9933 22.4959 49.1734C22.7457 49.3536 22.9258 49.6382 23.0246 50.0217H22.8735C23.0071 49.6789 23.2279 49.4058 23.53 49.2025C23.8379 48.9992 24.1865 48.9004 24.5816 48.9004C25.1219 48.9004 25.5286 49.0573 25.7958 49.3768C26.0631 49.6963 26.1967 50.1902 26.1967 50.8699V53.8212H25.0057V50.9164C25.0057 50.5329 24.9418 50.2599 24.814 50.0914C24.6862 49.9229 24.4828 49.8358 24.204 49.8358C23.8728 49.8358 23.6114 49.952 23.4196 50.1843C23.2279 50.4167 23.135 50.7305 23.135 51.1255V53.8212H21.9382V50.9164C21.9382 50.5329 21.8742 50.2599 21.7464 50.0914C21.6186 49.9229 21.4153 49.8358 21.1364 49.8358C20.8053 49.8358 20.5438 49.952 20.3579 50.1843C20.172 50.4167 20.0732 50.7305 20.0732 51.1255V53.8212H18.8822V53.8271Z" fill="white"/>
<path d="M27.4688 55.8895V50.2076C27.4688 50.0101 27.463 49.8067 27.4514 49.6034C27.4398 49.4 27.4224 49.1967 27.3933 48.9992H28.5495L28.654 50.0101H28.5495C28.6424 49.6731 28.8457 49.4058 29.1537 49.2025C29.4616 48.9992 29.8218 48.9004 30.2285 48.9004C30.6526 48.9004 31.0302 48.9992 31.3439 49.2025C31.6635 49.4058 31.9133 49.6905 32.0876 50.0623C32.2677 50.4342 32.3548 50.8815 32.3548 51.4044C32.3548 51.9273 32.2677 52.3746 32.0876 52.7523C31.9075 53.1299 31.6635 53.4146 31.3439 53.6179C31.0244 53.8212 30.6526 53.92 30.2285 53.92C29.8276 53.92 29.4732 53.8212 29.1653 53.6237C28.8574 53.4262 28.654 53.1647 28.5553 52.8336H28.6598V55.8895H27.4688ZM29.8973 53.0079C30.2807 53.0079 30.5829 52.8743 30.8152 52.6128C31.0476 52.3514 31.158 51.9505 31.158 51.416C31.158 50.8815 31.0418 50.4806 30.8152 50.2192C30.5887 49.9578 30.2807 49.83 29.8973 49.83C29.5197 49.83 29.2176 49.9578 28.991 50.2192C28.7586 50.4806 28.6482 50.8815 28.6482 51.416C28.6482 51.9505 28.7644 52.3514 28.991 52.6128C29.2176 52.8743 29.5197 53.0079 29.8973 53.0079Z" fill="white"/>
<path d="M35.2529 53.9259C34.8346 53.9259 34.4628 53.8271 34.1433 53.6238C33.8237 53.4204 33.5739 53.1357 33.3996 52.7581C33.2195 52.3805 33.1324 51.9331 33.1324 51.4102C33.1324 50.8874 33.2195 50.44 33.3996 50.0682C33.5797 49.6964 33.8237 49.4059 34.1433 49.2084C34.4628 49.005 34.8288 48.9062 35.2529 48.9062C35.6596 48.9062 36.0198 49.005 36.3277 49.2084C36.6357 49.4117 36.8448 49.6789 36.9436 50.0159H36.839L36.9436 49.005H38.0881C38.0707 49.2025 38.0532 49.4059 38.0358 49.6092C38.0184 49.8126 38.0126 50.0159 38.0126 50.2134V53.8329H36.8274L36.8158 52.8394H36.932C36.8274 53.1706 36.624 53.432 36.3103 53.6296C36.0024 53.8271 35.648 53.9259 35.2529 53.9259ZM35.5899 53.0079C35.9675 53.0079 36.2696 52.8743 36.4962 52.6129C36.7228 52.3514 36.839 51.9506 36.839 51.4161C36.839 50.8816 36.7228 50.4807 36.4962 50.2193C36.2638 49.9578 35.9617 49.83 35.5899 49.83C35.2123 49.83 34.9102 49.9578 34.6836 50.2193C34.4512 50.4807 34.3408 50.8816 34.3408 51.4161C34.3408 51.9506 34.4512 52.3514 34.6778 52.6129C34.9044 52.8743 35.2065 53.0079 35.5899 53.0079Z" fill="white"/>
<path d="M41.0344 53.9259C40.6219 53.9259 40.2385 53.8794 39.8899 53.7807C39.5413 53.6819 39.2508 53.5425 39.0184 53.3624L39.3554 52.5606C39.5994 52.7233 39.8667 52.8511 40.1571 52.9441C40.4476 53.0312 40.7439 53.0777 41.046 53.0777C41.3656 53.0777 41.6038 53.0254 41.7606 52.915C41.9175 52.8046 41.993 52.6594 41.993 52.4735C41.993 52.3282 41.9407 52.212 41.8478 52.1249C41.749 52.0377 41.5921 51.9738 41.3772 51.9274L40.4244 51.7473C40.0177 51.6601 39.704 51.5033 39.4948 51.2883C39.2799 51.0733 39.1753 50.7887 39.1753 50.4401C39.1753 50.138 39.2566 49.8765 39.4193 49.6499C39.582 49.4176 39.8144 49.2433 40.1165 49.1096C40.4186 48.9818 40.773 48.9121 41.1796 48.9121C41.534 48.9121 41.871 48.9586 42.1847 49.0574C42.4985 49.1503 42.7657 49.2956 42.9807 49.4873L42.6379 50.26C42.4404 50.1031 42.2138 49.9753 41.9582 49.8881C41.7025 49.801 41.4527 49.7545 41.2145 49.7545C40.8834 49.7545 40.6394 49.8126 40.4883 49.9288C40.3372 50.045 40.2559 50.1961 40.2559 50.382C40.2559 50.5214 40.3024 50.6376 40.3953 50.7306C40.4883 50.8235 40.6335 50.8932 40.8311 50.9339L41.7839 51.114C42.208 51.1953 42.5333 51.3406 42.7541 51.5497C42.9749 51.7589 43.0853 52.0377 43.0853 52.398C43.0853 52.7175 42.9981 52.9905 42.8296 53.2171C42.6553 53.4495 42.4171 53.6238 42.115 53.74C41.8013 53.862 41.4411 53.9259 41.0344 53.9259Z" fill="white"/>
<path d="M45.8212 53.9259C45.4087 53.9259 45.0253 53.8794 44.6767 53.7807C44.3281 53.6819 44.0376 53.5425 43.8052 53.3624L44.1422 52.5606C44.3862 52.7233 44.6535 52.8511 44.9439 52.9441C45.2344 53.0312 45.5307 53.0777 45.8328 53.0777C46.1524 53.0777 46.3906 53.0254 46.5474 52.915C46.7043 52.8046 46.7798 52.6594 46.7798 52.4735C46.7798 52.3282 46.7275 52.212 46.6346 52.1249C46.5358 52.0377 46.379 51.9738 46.164 51.9274L45.2112 51.7473C44.8045 51.6601 44.4908 51.5033 44.2816 51.2883C44.0667 51.0733 43.9621 50.7887 43.9621 50.4401C43.9621 50.138 44.0434 49.8765 44.2061 49.6499C44.3688 49.4176 44.6012 49.2433 44.9033 49.1096C45.2054 48.9818 45.5598 48.9121 45.9665 48.9121C46.3209 48.9121 46.6578 48.9586 46.9715 49.0574C47.2853 49.1503 47.5525 49.2956 47.7675 49.4873L47.4247 50.26C47.2272 50.1031 47.0006 49.9753 46.745 49.8881C46.4893 49.801 46.2395 49.7545 46.0013 49.7545C45.6702 49.7545 45.4262 49.8126 45.2751 49.9288C45.124 50.045 45.0427 50.1961 45.0427 50.382C45.0427 50.5214 45.0892 50.6376 45.1822 50.7306C45.2751 50.8235 45.4204 50.8932 45.6179 50.9339L46.5707 51.114C46.9948 51.1953 47.3201 51.3406 47.5409 51.5497C47.7617 51.7589 47.8721 52.0377 47.8721 52.398C47.8721 52.7175 47.7849 52.9905 47.6164 53.2171C47.4421 53.4495 47.2039 53.6238 46.9018 53.74C46.5823 53.862 46.2279 53.9259 45.8212 53.9259Z" fill="white"/>
<path d="M48.7551 53.8265V52.4961H50.0914V53.8265H48.7551Z" fill="white"/>
<path d="M52.9963 53.9257C52.4037 53.9257 51.9621 53.763 51.6658 53.4377C51.3754 53.1123 51.2243 52.6185 51.2243 51.9446V48.999H52.4211V51.9329C52.4211 52.2873 52.4966 52.5546 52.6419 52.7231C52.7871 52.8915 53.0137 52.9787 53.31 52.9787C53.647 52.9787 53.92 52.8625 54.135 52.6359C54.3499 52.4093 54.4545 52.1014 54.4545 51.7296V49.0048H55.6455V53.8269H54.4778V52.8451H54.6114C54.472 53.1878 54.257 53.4551 53.9781 53.641C53.6993 53.8327 53.3681 53.9257 52.9963 53.9257Z" fill="white"/>
<path d="M59.1253 53.9259C58.6257 53.9259 58.2016 53.8271 57.8356 53.6179C57.4754 53.4146 57.1907 53.1241 56.9874 52.7465C56.784 52.3689 56.6852 51.9273 56.6852 51.4102C56.6852 50.8932 56.784 50.4516 56.9874 50.0798C57.1907 49.708 57.4696 49.4175 57.8356 49.2142C58.2016 49.0108 58.6257 48.9062 59.1253 48.9062C59.625 48.9062 60.0549 49.0108 60.4209 49.2142C60.7869 49.4175 61.0716 49.708 61.2691 50.0798C61.4725 50.4516 61.5712 50.899 61.5712 51.4102C61.5712 51.9273 61.4725 52.3747 61.2691 52.7465C61.0658 53.1241 60.7869 53.4146 60.4209 53.6179C60.0549 53.8213 59.625 53.9259 59.1253 53.9259ZM59.1253 53.0079C59.503 53.0079 59.7993 52.8743 60.0258 52.6129C60.2466 52.3514 60.3628 51.9506 60.3628 51.4161C60.3628 50.8816 60.2524 50.4807 60.0258 50.2193C59.8051 49.9578 59.503 49.83 59.1253 49.83C58.7477 49.83 58.4514 49.9578 58.2248 50.2193C58.0041 50.4807 57.8879 50.8816 57.8879 51.4161C57.8879 51.9506 57.9982 52.3514 58.2248 52.6129C58.4514 52.8743 58.7535 53.0079 59.1253 53.0079Z" fill="white"/>
<path d="M62.605 53.8267V46.7969H63.8018V53.8267H62.605Z" fill="white"/>
<path d="M69.7113 53.9136C69.2407 53.9136 68.8282 53.8149 68.4855 53.6057C68.1369 53.4024 67.8696 53.1119 67.6837 52.7342C67.4978 52.3566 67.399 51.9151 67.399 51.398C67.399 50.8751 67.492 50.4336 67.6837 50.0676C67.8754 49.7016 68.1427 49.4227 68.4913 49.231C68.8399 49.0392 69.2465 48.9463 69.7113 48.9463C70.0192 48.9463 70.3155 48.9986 70.606 49.109C70.8965 49.2193 71.1347 49.3704 71.3264 49.5679L71.0476 50.1199C70.8558 49.9339 70.6467 49.8003 70.4201 49.7074C70.1935 49.6202 69.9728 49.5737 69.7578 49.5737C69.2582 49.5737 68.8747 49.7306 68.6017 50.0443C68.3286 50.3581 68.1892 50.8112 68.1892 51.4096C68.1892 52.0022 68.3286 52.4612 68.6017 52.7865C68.8747 53.1119 69.2582 53.2745 69.7578 53.2745C69.9669 53.2745 70.1877 53.2339 70.4143 53.1525C70.6409 53.0712 70.85 52.9318 71.0476 52.74L71.3264 53.2862C71.1289 53.4895 70.8849 53.6464 70.5886 53.7568C70.2981 53.8613 70.0076 53.9136 69.7113 53.9136Z" fill="white"/>
<path d="M74.3934 53.9136C73.9344 53.9136 73.5335 53.8148 73.1966 53.6115C72.8538 53.4081 72.5923 53.1234 72.4064 52.7516C72.2205 52.3798 72.1276 51.9383 72.1276 51.427C72.1276 50.9099 72.2205 50.4684 72.4064 50.0966C72.5923 49.7247 72.8538 49.4401 73.1966 49.2425C73.5393 49.0392 73.9344 48.9404 74.3934 48.9404C74.8581 48.9404 75.259 49.0392 75.6018 49.2425C75.9446 49.4459 76.206 49.7306 76.3919 50.0966C76.5778 50.4684 76.6766 50.9099 76.6766 51.427C76.6766 51.9383 76.5836 52.3798 76.3919 52.7516C76.206 53.1234 75.9387 53.4139 75.6018 53.6115C75.259 53.8148 74.8581 53.9136 74.3934 53.9136ZM74.3934 53.2861C74.8523 53.2861 75.2125 53.1293 75.4798 52.8155C75.747 52.5018 75.8807 52.0428 75.8807 51.4328C75.8807 50.8228 75.747 50.358 75.4798 50.0443C75.2125 49.7306 74.8465 49.5737 74.3934 49.5737C73.9402 49.5737 73.58 49.7306 73.3128 50.0443C73.0455 50.358 72.9119 50.8228 72.9119 51.4328C72.9119 52.037 73.0455 52.496 73.3128 52.8155C73.58 53.1351 73.9402 53.2861 74.3934 53.2861Z" fill="white"/>
<path d="M77.8795 53.8264V50.1372C77.8795 49.9571 77.8737 49.777 77.8563 49.5853C77.8389 49.3994 77.8214 49.2135 77.804 49.0276H78.5477L78.6406 50.0791H78.5244C78.6522 49.7131 78.8556 49.4343 79.1286 49.2367C79.4075 49.0392 79.7445 48.9404 80.1337 48.9404C80.5346 48.9404 80.8599 49.0334 81.1156 49.2251C81.3654 49.4168 81.5397 49.7131 81.6268 50.114H81.4816C81.6036 49.7538 81.8185 49.4633 82.1206 49.2542C82.4286 49.045 82.783 48.9404 83.1896 48.9404C83.7183 48.9404 84.1134 49.0915 84.3806 49.3936C84.6479 49.6957 84.7815 50.1721 84.7815 50.8228V53.8206H84.0088V50.8693C84.0088 50.4161 83.9275 50.085 83.7706 49.8816C83.6138 49.6725 83.3581 49.5737 83.0095 49.5737C82.6087 49.5737 82.2891 49.7131 82.0567 49.992C81.8244 50.2709 81.7082 50.6427 81.7082 51.1075V53.8322H80.9355V50.8809C80.9355 50.4277 80.8541 50.0966 80.6973 49.8932C80.5404 49.6841 80.2848 49.5853 79.9304 49.5853C79.5295 49.5853 79.2158 49.7247 78.9834 50.0036C78.7568 50.2825 78.6406 50.6543 78.6406 51.1191V53.8439H77.8795V53.8264Z" fill="white"/>
<path d="M86.2695 55.8889V50.1372C86.2695 49.9571 86.2637 49.777 86.2463 49.5853C86.2288 49.3994 86.2114 49.2135 86.194 49.0276H86.9376L87.0422 50.1663H86.926C87.0248 49.7887 87.2339 49.4924 87.5476 49.2716C87.8614 49.0508 88.2332 48.9404 88.6631 48.9404C89.093 48.9404 89.4707 49.0392 89.7844 49.2367C90.0981 49.4343 90.3479 49.7189 90.5222 50.0849C90.7023 50.4568 90.7895 50.8983 90.7895 51.4212C90.7895 51.9383 90.7023 52.3798 90.528 52.7516C90.3537 53.1234 90.1039 53.4081 89.7902 53.6057C89.4707 53.809 89.093 53.9078 88.6631 53.9078C88.2332 53.9078 87.8672 53.7974 87.5534 53.5824C87.2397 53.3675 87.0364 53.0712 86.9318 52.6935H87.0364V55.8831H86.2695V55.8889ZM88.512 53.2861C88.971 53.2861 89.337 53.1293 89.6043 52.8155C89.8715 52.5018 90.011 52.0428 90.011 51.4328C90.011 50.8228 89.8773 50.358 89.6043 50.0443C89.3312 49.7306 88.971 49.5737 88.512 49.5737C88.0589 49.5737 87.6987 49.7306 87.4256 50.0443C87.1526 50.358 87.019 50.8228 87.019 51.4328C87.019 52.037 87.1526 52.496 87.4256 52.8155C87.6987 53.1234 88.0647 53.2861 88.512 53.2861Z" fill="white"/>
<path d="M93.8279 53.9136C93.4038 53.9136 93.0261 53.8149 92.7124 53.6115C92.3929 53.4082 92.1489 53.1235 91.9746 52.7575C91.8003 52.3857 91.7131 51.9441 91.7131 51.4271C91.7131 50.9042 91.8003 50.4568 91.9746 50.0908C92.1489 49.719 92.3987 49.4401 92.7124 49.2426C93.0319 49.0451 93.4038 48.9463 93.8279 48.9463C94.2636 48.9463 94.6354 49.0567 94.9491 49.2774C95.2629 49.4982 95.472 49.7945 95.5766 50.1721H95.4604L95.565 49.0334H96.3086C96.2912 49.2193 96.2738 49.4053 96.2563 49.5912C96.2389 49.7771 96.2331 49.963 96.2331 50.1431V53.8323H95.4604V52.7052H95.565C95.4604 53.0828 95.2513 53.3791 94.9317 53.5941C94.618 53.8032 94.2462 53.9136 93.8279 53.9136ZM93.9789 53.2862C94.4379 53.2862 94.7981 53.1293 95.0653 52.8156C95.3326 52.5019 95.4662 52.0429 95.4662 51.4329C95.4662 50.8228 95.3326 50.3581 95.0653 50.0443C94.7981 49.7306 94.4321 49.5737 93.9789 49.5737C93.5258 49.5737 93.1656 49.7306 92.8925 50.0443C92.6195 50.3581 92.4858 50.8228 92.4858 51.4329C92.4858 52.0371 92.6195 52.496 92.8925 52.8156C93.1656 53.1351 93.5258 53.2862 93.9789 53.2862Z" fill="white"/>
<path d="M97.7317 53.8264V50.1372C97.7317 49.9571 97.7258 49.777 97.7084 49.5853C97.691 49.3994 97.6736 49.2135 97.6561 49.0276H98.3998L98.4927 50.0791H98.3765C98.516 49.7073 98.7425 49.4284 99.0505 49.2309C99.3584 49.0392 99.7186 48.9404 100.125 48.9404C100.695 48.9404 101.119 49.0915 101.409 49.3936C101.7 49.6957 101.845 50.1721 101.845 50.8228V53.8206H101.072V50.8693C101.072 50.4161 100.979 50.085 100.799 49.8816C100.619 49.6725 100.334 49.5737 99.951 49.5737C99.5036 49.5737 99.1492 49.7131 98.8878 49.9862C98.6264 50.2592 98.4985 50.6253 98.4985 51.0842V53.8264H97.7317Z" fill="white"/>
<path d="M103.139 55.9991L102.959 55.36C103.261 55.2903 103.511 55.209 103.709 55.116C103.912 55.023 104.075 54.901 104.208 54.75C104.342 54.5989 104.458 54.4072 104.551 54.1748L104.801 53.6113L104.784 53.9366L102.692 49.0332H103.534L105.266 53.2453H105.016L106.724 49.0332H107.537L105.324 54.2329C105.196 54.5408 105.057 54.7965 104.906 54.9998C104.754 55.209 104.592 55.3774 104.412 55.5053C104.237 55.6331 104.046 55.7376 103.837 55.8132C103.616 55.8887 103.389 55.9526 103.139 55.9991Z" fill="white"/>
</svg>
