<svg width="20" height="20" viewBox="0 0 20 20" fill="none" xmlns="http://www.w3.org/2000/svg">
<path d="M2.34005 0.929993L0.930054 2.33999L5.29005 6.69999L5.00005 6.99999H1.00005V13H5.00005L10.0001 18V11.41L14.1801 15.59C13.5301 16.08 12.8001 16.47 12.0001 16.7V18.76C13.3401 18.46 14.5701 17.84 15.6101 17.01L17.6601 19.06L19.0701 17.65L2.34005 0.929993ZM8.00005 13.17L5.83005 11H3.00005V8.99999H5.83005L6.71005 8.11999L8.00005 9.40999V13.17ZM17.0001 9.99999C17.0001 10.82 16.8501 11.61 16.5901 12.34L18.1201 13.87C18.6801 12.7 19.0001 11.39 19.0001 9.99999C19.0001 5.71999 16.0101 2.13999 12.0001 1.22999V3.28999C14.8901 4.14999 17.0001 6.82999 17.0001 9.99999ZM10.0001 1.99999L8.12005 3.87999L10.0001 5.75999V1.99999ZM14.5001 9.99999C14.5001 8.22999 13.4801 6.70999 12.0001 5.96999V7.75999L14.4801 10.24C14.4901 10.16 14.5001 10.08 14.5001 9.99999Z" fill="#C2C9D6"/>
</svg>
