<svg width="64" height="65" viewBox="0 0 64 65" fill="none" xmlns="http://www.w3.org/2000/svg">
<path fill-rule="evenodd" clip-rule="evenodd" d="M23.36 17.92V9.92H38.72V17.92H42.88L46.72 41.28H17.28L19.84 17.92H23.36ZM27.2 13.76H34.88V17.92H27.2V13.76ZM38.7114 21.76H23.2822L21.5638 37.44H37.4227L38.7114 21.76ZM40.16 26.4L39.36 37.44H42.1972L40.16 26.4Z" fill="#FECE00"/>
<path fill-rule="evenodd" clip-rule="evenodd" d="M64 55.68H41.92V60.16H49.6V64H22.08V62.1152L22.0757 64.0172L14.3957 64L14.4044 60.16L22.08 60.1772V55.68H25.92V60.16H38.08V55.68H25.92L0 55.6798V0H64V55.68ZM3.84 51.8398V47.6798L60.16 47.68V51.84L3.84 51.8398ZM60.16 43.84L3.84 43.8398V3.84H60.16V43.84Z" fill="#FECE00"/>
<path d="M33.7844 31.8093C33.7844 29.8529 31.6734 29.2968 30.7608 29.0386C29.0359 28.5619 28.8905 27.9462 28.9155 27.6333C28.9757 26.8637 29.8281 26.675 30.6204 26.8438C31.2421 26.9779 31.884 27.3404 32.24 27.6184L33.3682 26.3075C32.8116 25.9302 32.0996 25.4435 31.0566 25.2449V23.9737H29.4069V25.2002C27.8074 25.3194 26.7444 26.3125 26.7444 27.678C26.7444 29.0088 27.7171 29.6344 28.6899 30.1012C29.5022 30.4835 31.7686 30.8857 31.6383 31.8987C31.5681 32.4499 30.9764 32.8571 29.9986 32.7329C29.1462 32.6286 28.2336 31.9186 28.2336 31.9186L26.9851 33.1451C27.7372 33.7459 28.5345 34.1233 29.4019 34.2971V35.4937H31.0516V34.3566C32.6261 34.1878 33.7844 33.1252 33.7844 31.8093Z" fill="#FECE00"/>
</svg>
