<svg width="110" height="40" viewBox="0 0 110 40" fill="none" xmlns="http://www.w3.org/2000/svg">
<path d="M61.4281 12.1082H57.5858V20.9892C57.5858 23.2673 56.6488 25.0886 53.895 25.0886C51.1708 25.1182 50.3799 23.2432 50.3799 20.8705V12.1159H46.5354V21.8372C46.5354 24.6492 47.5317 28.6475 52.8009 28.6882C55.7008 28.7178 57.1343 27.3118 57.8065 26.0519V28.1884H61.4138L61.4281 12.1082ZM62.9462 28.1785H66.782V19.3085C66.782 17.0545 67.7189 15.2399 70.442 15.2091C73.1354 15.2091 73.9263 17.0545 73.9263 19.4546V28.1785H77.762V18.488C77.762 15.6485 76.7657 11.637 71.5262 11.6073C68.657 11.5776 67.2202 12.9837 66.5205 14.2436L66.5502 12.1071H62.9473L62.9462 28.1785ZM79.2252 9.93876H83.061V6.5116H79.2252V9.91679V9.93876ZM79.2252 28.1774H83.061V12.1071H79.2252V28.1774ZM87.0736 28.1796H90.9094V15.0641H93.661L92.5219 12.1071H90.9193V6.5116H87.0747V12.1093H84.411V15.0663H87.0747L87.0736 28.1796ZM97.3628 33.8004H101.46L109.922 12.1082H105.823L101.956 22.7928L98.0416 12.1082H93.9356L99.9957 27.5678L97.3628 33.8004ZM39.1055 15.888L34.8215 0L18.8611 4.25978L16.5016 8.40752L11.7234 8.37457L0.0776062 20.0038L11.7453 31.6309L16.5313 31.5947L18.8929 35.7424L34.8204 40L39.0901 24.1142L36.6779 20.0005L39.1055 15.888ZM29.1096 5.95139L22.1125 18.0387H8.11825L16.9278 9.07538L29.1096 5.95139ZM22.1125 21.9887L29.1096 34.075L16.9168 30.9422L8.10726 21.992H22.1015L22.1125 21.9887ZM25.5177 20.0258L32.528 7.91762L35.9112 20.0049L32.528 32.0879L25.5177 20.0258Z" fill="#8F96A3"/>
</svg>
