<svg width="67" height="40" viewBox="0 0 67 40" fill="none" xmlns="http://www.w3.org/2000/svg">
<g clip-path="url(#clip0_1678_15962)">
<path d="M18.9268 14.4938C18.9268 15.3137 19.0154 15.9786 19.1706 16.4661C19.3479 16.9537 19.5695 17.4856 19.8797 18.0618C19.9905 18.2391 20.0349 18.4164 20.0349 18.5715C20.0349 18.7931 19.9019 19.0147 19.6138 19.2363L18.2176 20.1671C18.0182 20.3001 17.8187 20.3666 17.6414 20.3666C17.4198 20.3666 17.1982 20.2558 16.9766 20.0563C16.6663 19.7239 16.4004 19.3693 16.1787 19.0147C15.9571 18.638 15.7355 18.2169 15.4917 17.7072C13.7631 19.7461 11.5913 20.7655 8.97622 20.7655C7.11464 20.7655 5.62981 20.2336 4.54389 19.1699C3.45797 18.1061 2.90393 16.6878 2.90393 14.9148C2.90393 13.0311 3.56878 11.5019 4.92064 10.3495C6.2725 9.19713 8.06759 8.62093 10.3502 8.62093C11.1037 8.62093 11.8794 8.68741 12.6994 8.79822C13.5193 8.90903 14.3615 9.08632 15.248 9.28578V7.66798C15.248 5.98369 14.8934 4.80913 14.2064 4.12212C13.4972 3.43511 12.3005 3.10268 10.594 3.10268C9.81836 3.10268 9.02054 3.19133 8.20056 3.39078C7.38058 3.59024 6.58276 3.83402 5.8071 4.14428C5.45252 4.29941 5.18658 4.38806 5.03145 4.43238C4.87632 4.4767 4.76551 4.49886 4.67686 4.49886C4.3666 4.49886 4.21147 4.27725 4.21147 3.81185V2.72593C4.21147 2.37135 4.25579 2.10541 4.3666 1.95028C4.47741 1.79515 4.67686 1.64002 4.98712 1.48488C5.76278 1.08597 6.69357 0.75355 7.77949 0.487611C8.86541 0.19951 10.0178 0.06654 11.2367 0.06654C13.8739 0.06654 15.802 0.664904 17.043 1.86163C18.2619 3.05836 18.8825 4.87561 18.8825 7.31339V14.4938H18.9268ZM9.92917 17.8623C10.6605 17.8623 11.414 17.7294 12.2118 17.4634C13.0096 17.1975 13.7188 16.7099 14.3172 16.0451C14.6718 15.624 14.9377 15.1586 15.0707 14.6267C15.2036 14.0948 15.2923 13.4522 15.2923 12.6987V11.7679C14.6496 11.6127 13.9626 11.4798 13.2534 11.3911C12.5442 11.3025 11.8572 11.2582 11.1702 11.2582C9.68539 11.2582 8.59947 11.5463 7.86813 12.1446C7.1368 12.743 6.78222 13.5851 6.78222 14.6932C6.78222 15.7348 7.04815 16.5105 7.60219 17.0423C8.13407 17.5964 8.90973 17.8623 9.92917 17.8623ZM27.725 20.2558C27.326 20.2558 27.0601 20.1893 26.8828 20.0342C26.7055 19.9012 26.5504 19.5909 26.4174 19.1699L21.2094 2.03892C21.0765 1.59569 21.01 1.30759 21.01 1.15246C21.01 0.797874 21.1873 0.598419 21.5419 0.598419H23.7137C24.1348 0.598419 24.4229 0.664904 24.578 0.820035C24.7553 0.953005 24.8883 1.26327 25.0212 1.68434L28.7444 16.3553L32.2016 1.68434C32.3124 1.24111 32.4454 0.953005 32.6227 0.820035C32.8 0.687065 33.1102 0.598419 33.5091 0.598419H35.2821C35.7031 0.598419 35.9912 0.664904 36.1685 0.820035C36.3458 0.953005 36.501 1.26327 36.5896 1.68434L40.0911 16.5326L43.9251 1.68434C44.0581 1.24111 44.2132 0.953005 44.3683 0.820035C44.5456 0.687065 44.8337 0.598419 45.2326 0.598419H47.2937C47.6483 0.598419 47.8477 0.775712 47.8477 1.15246C47.8477 1.26327 47.8255 1.37408 47.8034 1.50705C47.7812 1.64002 47.7369 1.81731 47.6483 2.06109L42.3073 19.192C42.1743 19.6353 42.0192 19.9234 41.8419 20.0563C41.6646 20.1893 41.3765 20.2779 40.9998 20.2779H39.0939C38.6728 20.2779 38.3847 20.2115 38.2074 20.0563C38.0301 19.9012 37.875 19.6131 37.7863 19.1699L34.3513 4.87561L30.9384 19.1477C30.8276 19.5909 30.6946 19.879 30.5173 20.0342C30.34 20.1893 30.0298 20.2558 29.6308 20.2558H27.725ZM56.2026 20.8541C55.0502 20.8541 53.8978 20.7212 52.7897 20.4552C51.6817 20.1893 50.8174 19.9012 50.2412 19.5688C49.8866 19.3693 49.6428 19.1477 49.5542 18.9482C49.4655 18.7488 49.4212 18.5272 49.4212 18.3277V17.1975C49.4212 16.7321 49.5985 16.5105 49.9309 16.5105C50.0639 16.5105 50.1968 16.5326 50.3298 16.577C50.4628 16.6213 50.6622 16.7099 50.8839 16.7986C51.6373 17.131 52.4573 17.3969 53.3216 17.5742C54.2081 17.7515 55.0724 17.8402 55.9589 17.8402C57.355 17.8402 58.441 17.5964 59.1945 17.1088C59.948 16.6213 60.3469 15.9121 60.3469 15.0035C60.3469 14.3829 60.1474 13.8732 59.7485 13.4522C59.3496 13.0311 58.5961 12.6543 57.5102 12.2998L54.2967 11.3025C52.6789 10.7928 51.4822 10.0393 50.7509 9.042C50.0195 8.06689 49.6428 6.98097 49.6428 5.82856C49.6428 4.89777 49.8423 4.07779 50.2412 3.36862C50.6401 2.65945 51.172 2.03892 51.8368 1.55137C52.5016 1.04165 53.2551 0.664904 54.1416 0.398964C55.0281 0.133025 55.9589 0.0222168 56.934 0.0222168C57.4215 0.0222168 57.9312 0.0443784 58.4188 0.110863C58.9285 0.177348 59.3939 0.265995 59.8593 0.354641C60.3025 0.465449 60.7236 0.576257 61.1225 0.709227C61.5214 0.842197 61.8317 0.975166 62.0533 1.10814C62.3636 1.28543 62.5852 1.46272 62.7182 1.66218C62.8511 1.83947 62.9176 2.08325 62.9176 2.39351V3.43511C62.9176 3.9005 62.7403 4.14428 62.4079 4.14428C62.2306 4.14428 61.9425 4.05563 61.5658 3.87834C60.3025 3.30214 58.8842 3.01404 57.3107 3.01404C56.0475 3.01404 55.0502 3.21349 54.3632 3.63456C53.6762 4.05563 53.3216 4.69832 53.3216 5.60695C53.3216 6.22747 53.5432 6.75935 53.9865 7.18042C54.4297 7.60149 55.2497 8.02256 56.4243 8.39931L59.5712 9.39658C61.1668 9.9063 62.3193 10.6155 63.0063 11.5241C63.6933 12.4327 64.0257 13.4743 64.0257 14.6267C64.0257 15.5797 63.8262 16.444 63.4495 17.1975C63.0506 17.951 62.5187 18.6158 61.8317 19.1477C61.1447 19.7017 60.3247 20.1006 59.3718 20.3887C58.3745 20.699 57.3329 20.8541 56.2026 20.8541Z" fill="#8F96A3"/>
<path d="M60.3909 31.6245C53.0997 37.0098 42.5065 39.8687 33.398 39.8687C20.6329 39.8687 9.13105 35.1482 0.443695 27.303C-0.243315 26.6825 0.37721 25.8404 1.19719 26.3279C10.5937 31.7797 22.1842 35.0818 34.1737 35.0818C42.2627 35.0818 51.1495 33.3975 59.3271 29.9403C60.546 29.3862 61.5876 30.7381 60.3909 31.6245ZM63.427 28.1673C62.4962 26.9706 57.2661 27.5911 54.8948 27.8792C54.1856 27.9679 54.0748 27.3473 54.7175 26.882C58.8839 23.9566 65.7318 24.7988 66.5297 25.7739C67.3275 26.7711 66.308 33.6191 62.4076 36.899C61.8092 37.4087 61.233 37.1428 61.499 36.4779C62.3854 34.2839 64.3578 29.3419 63.427 28.1673Z" fill="#8F96A3"/>
</g>
<defs>
<clipPath id="clip0_1678_15962">
<rect width="66.9281" height="40" fill="white"/>
</clipPath>
</defs>
</svg>
