<svg width="138" height="36" viewBox="0 0 138 36" fill="none" xmlns="http://www.w3.org/2000/svg">
<g clip-path="url(#clip0_1678_15966)">
<path d="M16.0335 0H0.980347V36L16.0335 0Z" fill="#8F96A3"/>
<path d="M26.6246 0H41.6581V36L26.6246 0Z" fill="#8F96A3"/>
<path d="M21.3294 13.2683L30.9104 36H24.6244L21.7609 28.7627H14.7491L21.3294 13.2683Z" fill="#8F96A3"/>
<path d="M66.2157 22.8937L67.9907 27.9834C68.0496 28.1108 68.1378 28.1697 68.2947 28.1697H71.7074C71.8937 28.1697 71.9232 28.0814 71.8937 27.8951L64.8428 8.31133C64.8134 8.15442 64.784 8.125 64.627 8.125H60.3906C60.2729 8.125 60.2043 8.21326 60.2043 8.34074C60.1454 9.37044 60.0572 9.68425 59.9297 9.98825L53.6437 27.8657C53.6142 28.0814 53.6829 28.1697 53.8594 28.1697H56.9093C57.0956 28.1697 57.1839 28.1108 57.2525 27.9245L58.9294 22.8937H66.2157ZM59.9003 19.5693C60.8221 16.7842 62.0381 13.2146 62.5284 11.1749H62.5579C63.1659 13.3127 64.5976 17.5491 65.2449 19.5693H59.9003Z" fill="#8F96A3"/>
<path d="M80.9577 28.4736C82.7915 28.4736 84.743 28.1402 86.7239 27.287C86.8808 27.2282 86.9103 27.1595 86.9103 27.0124C86.8514 26.4633 86.7828 25.6689 86.7828 25.0609V6.62452C86.7828 6.50684 86.7828 6.448 86.6357 6.448H83.3113C83.1838 6.448 83.1249 6.50684 83.1249 6.66374V12.9105C82.6052 12.8517 82.2423 12.8223 81.8108 12.8223C76.4466 12.8223 73.1516 16.3625 73.1516 20.7852C73.1516 25.9141 76.5349 28.4736 80.9577 28.4736ZM83.1249 25.0609C82.5757 25.2374 81.9677 25.3061 81.3499 25.3061C78.9179 25.3061 76.9271 23.9332 76.9271 20.5989C76.9271 17.6471 78.9767 15.9016 81.6932 15.9016C82.2423 15.9016 82.7228 15.9604 83.1249 16.1173V25.0609Z" fill="#8F96A3"/>
<path d="M97.5163 12.8223C92.9366 12.8223 90.1025 16.333 90.1025 20.6675C90.1025 24.5411 92.3581 28.4736 97.4477 28.4736C101.753 28.4736 104.773 25.3061 104.773 20.5695C104.773 16.3919 102.214 12.8223 97.5163 12.8223ZM97.33 15.9015C99.9189 15.9015 101.017 18.1276 101.017 20.6675C101.017 23.8056 99.3992 25.3649 97.5163 25.3649C95.1922 25.3649 93.8192 23.4134 93.8192 20.5989C93.8192 17.7059 95.2804 15.9015 97.33 15.9015Z" fill="#8F96A3"/>
<path d="M108.21 6.448C108.083 6.448 107.995 6.50684 107.995 6.66374V27.5322C107.995 27.6204 108.083 27.7773 108.21 27.8068C109.672 28.2579 111.202 28.4736 112.78 28.4736C117.301 28.4736 121.695 25.6689 121.695 20.0203C121.695 15.931 118.89 12.8223 114.497 12.8223C113.486 12.8223 112.545 12.9792 111.721 13.2538L111.682 6.69316C111.682 6.47742 111.623 6.448 111.407 6.448H108.21ZM117.939 20.393C117.939 23.7762 115.624 25.3649 113.124 25.3649C112.604 25.3649 112.143 25.3355 111.721 25.208V16.3036C112.202 16.1173 112.78 15.9604 113.849 15.9604C116.262 15.9604 117.939 17.4902 117.939 20.393Z" fill="#8F96A3"/>
<path d="M134.101 21.4913C135.591 21.4913 136.817 21.4619 137.239 21.3638C137.396 21.3344 137.455 21.2755 137.484 21.1481C137.572 20.8146 137.612 20.1184 137.612 19.2652C137.612 16.3624 135.866 12.8223 131.355 12.8223C126.746 12.8223 124.186 16.5782 124.186 20.8146C124.186 24.5706 126.167 28.4736 131.718 28.4736C133.797 28.4736 135.14 28.1402 136.297 27.591C136.415 27.5321 136.474 27.4341 136.474 27.2576V24.7177C136.474 24.5706 136.386 24.5411 136.297 24.6C135.14 25.0903 133.885 25.3355 132.512 25.3355C129.403 25.3355 127.991 23.6193 127.903 21.4913H134.101ZM127.903 18.8631C128.148 17.3725 129.09 15.7544 131.198 15.7544C133.522 15.7544 134.13 17.7059 134.13 18.5885C134.13 18.618 134.13 18.7454 134.13 18.8337C134.003 18.8631 133.61 18.8631 132.453 18.8631H127.903Z" fill="#8F96A3"/>
</g>
<defs>
<clipPath id="clip0_1678_15966">
<rect width="136.632" height="36" fill="white" transform="translate(0.980347)"/>
</clipPath>
</defs>
</svg>
