<svg width="98" height="80" viewBox="0 0 98 80" fill="none" xmlns="http://www.w3.org/2000/svg">
<path fill-rule="evenodd" clip-rule="evenodd" d="M48.4123 18.5234L0.179138 36.6403L21.2401 45.3729V63.5087L21.2786 63.7241C21.6627 65.8739 22.9381 67.6242 24.5495 68.9929C26.1564 70.3578 28.219 71.4531 30.489 72.3187C35.0317 74.0512 40.8162 75.0193 46.6338 75.1765C52.4549 75.3339 58.4963 74.6845 63.5533 73.044C68.5233 71.4317 73.0455 68.6891 74.9876 64.286L75.1976 63.8101V45.797L97.821 36.6399L48.4123 18.5234ZM70.2614 47.795L48.4114 56.6391L26.1762 47.4196V63.0335C26.3406 63.6798 26.7953 64.4241 27.7451 65.2308C28.7876 66.1163 30.3017 66.9644 32.2479 67.7066C36.1373 69.1899 41.3422 70.0956 46.7672 70.2422C52.1885 70.3887 57.6427 69.772 62.0301 68.3487C66.2435 66.9819 69.0351 65.0231 70.2614 62.725V47.795ZM13.6136 36.867L48.433 23.7885L84.1027 36.8674L48.434 51.3048L13.6136 36.867Z" fill="#F8F9FC"/>
<path d="M11.5692 35.7109V56.7077C9.97926 57.4738 8.88208 59.1006 8.88208 60.9837C8.88208 63.6037 11.006 65.7276 13.6259 65.7276C16.2459 65.7276 18.3698 63.6037 18.3698 60.9837C18.3698 59.1006 17.2726 57.4738 15.6827 56.7077V39.8244L48.4145 39.8244L48.4145 35.711L11.5692 35.7109Z" fill="#FECE00"/>
<path fill-rule="evenodd" clip-rule="evenodd" d="M75.1929 10.8801C74.5669 11.6104 73.4674 11.6949 72.7371 11.0689C72.0068 10.4429 71.9223 9.34333 72.5483 8.61304C73.1743 7.88275 74.2739 7.79822 75.0041 8.42425C75.7344 9.05028 75.819 10.1498 75.1929 10.8801ZM74.6904 10.4493C74.3023 10.902 73.6206 10.9544 73.1679 10.5663C72.7152 10.1782 72.6628 9.49659 73.0509 9.04385C73.439 8.59111 74.1206 8.53871 74.5733 8.92681C75.0261 9.31491 75.0785 9.99655 74.6904 10.4493Z" fill="#FECE00"/>
<path fill-rule="evenodd" clip-rule="evenodd" d="M78.2995 12.098L78.0406 12.4001L74.6165 15.3051L74.6083 15.4048C74.6006 15.4968 74.5894 15.6287 74.5754 15.7884C74.5474 16.1078 74.5081 16.5398 74.4629 16.9892C74.4178 17.4377 74.3664 17.9079 74.3142 18.3023C74.2661 18.6655 74.2079 19.0457 74.1352 19.2556C74.0221 19.5823 73.7667 19.9937 73.5047 20.3768C73.229 20.7798 72.8972 21.2201 72.581 21.6241C72.2638 22.0293 71.9576 22.4041 71.731 22.6773C71.6175 22.814 71.5238 22.9256 71.4581 23.0032L71.4219 23.0461L71.3819 23.0932L71.3615 23.117L71.3562 23.1233L71.3541 23.1257L70.1152 24.571L70.3553 18.4793L66.29 14.9944L66.2507 15.0505L59.5236 16.3642L60.7625 14.9189L60.7627 14.9186L60.77 14.9102L60.7904 14.8865C60.8082 14.8658 60.8343 14.8357 60.8677 14.7974C60.9344 14.7206 61.0303 14.6109 61.1481 14.4779C61.3834 14.2122 61.707 13.8523 62.059 13.4769C62.4099 13.1027 62.7943 12.7074 63.1504 12.3734C63.489 12.0559 63.8565 11.7407 64.1621 11.5789C64.3584 11.4751 64.7253 11.3594 65.0769 11.2564C65.4586 11.1445 65.9155 11.0218 66.3517 10.9087C66.789 10.7954 67.2099 10.6905 67.5213 10.614C67.677 10.5758 67.8056 10.5446 67.8953 10.5229C67.9402 10.5121 67.9754 10.5036 67.9994 10.4978L68.0319 10.4901L70.6291 6.04666L70.888 5.74462L78.1588 4.80078L78.2995 12.098ZM70.6187 16.8161L76.8541 11.526L76.7558 6.42913L71.6817 7.0878L67.5388 14.1758L70.6187 16.8161ZM72.412 19.6293C72.1734 19.9781 71.8819 20.3675 71.5911 20.7408L71.687 18.3075L73.1401 16.9122C73.097 17.3376 73.0493 17.7699 73.0018 18.1284C72.977 18.3158 72.9528 18.478 72.9302 18.6062C72.9189 18.6702 72.9086 18.722 72.8996 18.7621C72.8951 18.7819 72.8913 18.7971 72.8883 18.8083C72.8864 18.815 72.8852 18.8192 72.8846 18.8213L72.8841 18.8227C72.8359 18.9617 72.6784 19.2399 72.412 19.6293ZM63.0832 14.3202C63.4077 13.9758 63.7479 13.6281 64.0561 13.339C64.4003 13.0162 64.6512 12.818 64.7812 12.7492C64.7815 12.749 64.7856 12.7469 64.7948 12.7429C64.8053 12.7382 64.8198 12.7321 64.8387 12.7247C64.8769 12.7096 64.9265 12.6915 64.9881 12.6705C65.1112 12.6286 65.2679 12.5799 65.4493 12.5268C65.7964 12.425 66.2163 12.3118 66.63 12.2042L65.4732 13.8535L63.0832 14.3202Z" fill="#FECE00"/>
</svg>
