<svg width="16" height="16" viewBox="0 0 16 16" fill="none" xmlns="http://www.w3.org/2000/svg">
<path d="M14.8571 0H1.10714C0.500001 0 0 0.535714 0 1.17858V14.8571C0 15.5 0.500001 16 1.10714 16H14.8571C15.4643 16 16 15.5 16 14.8571V1.17858C16 0.535714 15.4643 0 14.8571 0ZM4.82142 13.7143H2.46428V6.10714H4.82142V13.7143ZM3.64286 5.03571C2.85714 5.03571 2.25 4.42858 2.25 3.67857C2.25 2.92857 2.85714 2.28571 3.64286 2.28571C4.39286 2.28571 5.00001 2.92857 5.00001 3.67857C5.00001 4.42858 4.39286 5.03571 3.64286 5.03571ZM13.7143 13.7143H11.3214V10.0001C11.3214 9.14286 11.3214 8 10.1071 8C8.85714 8 8.67857 8.96429 8.67857 9.96429V13.7143H6.32143V6.10714H8.57143V7.14286H8.60715C8.92857 6.53571 9.71429 5.89286 10.8571 5.89286C13.25 5.89286 13.7143 7.5 13.7143 9.53572V13.7143Z" fill="#FECE00"/>
</svg>
