<svg width="18" height="18" viewBox="0 0 18 18" fill="none" xmlns="http://www.w3.org/2000/svg">
<g clip-path="url(#clip0_3648_30079)">
<path d="M17.6051 4.25731C17.4076 3.46755 16.7824 2.84232 16.0256 2.64488C14.6106 2.25 9.01643 2.25 9.01643 2.25C9.01643 2.25 3.38939 2.25 1.9744 2.64488C1.21755 2.84232 0.59232 3.46755 0.394879 4.25731C2.78953e-08 5.63939 0 8.60099 0 8.60099C0 8.60099 2.78953e-08 11.5297 0.394879 12.9447C0.59232 13.7344 1.21755 14.3267 1.9744 14.5242C3.38939 14.8862 9.01643 14.8862 9.01643 14.8862C9.01643 14.8862 14.6106 14.8862 16.0256 14.5242C16.7824 14.3267 17.4076 13.7344 17.6051 12.9447C18 11.5297 18 8.60099 18 8.60099C18 8.60099 18 5.63939 17.6051 4.25731ZM7.17366 11.2664V5.93555L11.8464 8.60099L7.17366 11.2664Z" fill="#FECE00"/>
</g>
<defs>
<clipPath id="clip0_3648_30079">
<rect width="18" height="18" fill="white"/>
</clipPath>
</defs>
</svg>
