<svg width="16" height="16" viewBox="0 0 16 16" fill="none" xmlns="http://www.w3.org/2000/svg">
<path d="M14.3718 5.22651C14.998 4.75663 15.5617 4.19277 16 3.53494C15.4364 3.78554 14.7789 3.97349 14.1214 4.03614C14.8102 3.62891 15.3112 3.00241 15.5617 2.21928C14.9354 2.59518 14.2153 2.87711 13.4951 3.03373C12.8689 2.3759 12.0235 2 11.0842 2C9.26808 2 7.7965 3.47229 7.7965 5.28915C7.7965 5.53976 7.82781 5.79036 7.89043 6.04096C5.16635 5.88434 2.72407 4.56868 1.09589 2.59518C0.814091 3.06506 0.657536 3.62891 0.657536 4.25543C0.657536 5.38313 1.22113 6.38554 2.12916 6.98072C1.59687 6.94939 1.06458 6.8241 0.626225 6.5735V6.60482C0.626225 8.20241 1.75343 9.51808 3.25637 9.83133C3.00588 9.89397 2.69277 9.95662 2.41096 9.95662C2.19179 9.95662 2.00392 9.9253 1.78474 9.89398C2.19179 11.2096 3.41292 12.1494 4.85324 12.1807C3.72603 13.0578 2.31703 13.5904 0.782781 13.5904C0.50098 13.5904 0.25049 13.559 0 13.5278C1.44032 14.4674 3.16243 15 5.04111 15C11.0842 15 14.3718 10.0193 14.3718 5.66506C14.3718 5.50844 14.3718 5.38313 14.3718 5.22651Z" fill="#FECE00"/>
</svg>
