<svg width="16" height="16" viewBox="0 0 16 16" fill="none" xmlns="http://www.w3.org/2000/svg">
<path d="M8.01785 3.87499C5.73213 3.87499 3.91071 5.73214 3.91071 7.98213C3.91071 10.2678 5.73213 12.0893 8.01785 12.0893C10.2678 12.0893 12.125 10.2678 12.125 7.98213C12.125 5.73214 10.2678 3.87499 8.01785 3.87499ZM8.01785 10.6607C6.55356 10.6607 5.33928 9.48213 5.33928 7.98213C5.33928 6.51784 6.51785 5.33928 8.01785 5.33928C9.48212 5.33928 10.6607 6.51784 10.6607 7.98213C10.6607 9.48213 9.48212 10.6607 8.01785 10.6607ZM13.2321 3.73214C13.2321 3.19642 12.8035 2.76786 12.2678 2.76786C11.7321 2.76786 11.3036 3.19642 11.3036 3.73214C11.3036 4.26785 11.7321 4.69642 12.2678 4.69642C12.8035 4.69642 13.2321 4.26785 13.2321 3.73214ZM15.9464 4.69642C15.875 3.41071 15.5892 2.26785 14.6607 1.33929C13.7321 0.410714 12.5893 0.125 11.3036 0.053571C9.98213 -0.017857 6.01785 -0.017857 4.69642 0.053571C3.41071 0.125 2.30357 0.410714 1.33928 1.33929C0.410714 2.26785 0.125 3.41071 0.053574 4.69642C-0.017858 6.01785 -0.017858 9.98218 0.053574 11.3035C0.125 12.5893 0.410714 13.6964 1.33928 14.6607C2.30357 15.5893 3.41071 15.8749 4.69642 15.9464C6.01785 16.0179 9.98213 16.0179 11.3036 15.9464C12.5893 15.8749 13.7321 15.5893 14.6607 14.6607C15.5892 13.6964 15.875 12.5893 15.9464 11.3035C16.0178 9.98218 16.0178 6.01785 15.9464 4.69642ZM14.2321 12.6964C13.9821 13.4107 13.4107 13.9464 12.7321 14.2321C11.6607 14.6607 9.1607 14.5536 8.01785 14.5536C6.83927 14.5536 4.33928 14.6607 3.30357 14.2321C2.58928 13.9464 2.05357 13.4107 1.76786 12.6964C1.33928 11.6607 1.44643 9.16071 1.44643 7.98213C1.44643 6.83928 1.33928 4.33928 1.76786 3.26786C2.05357 2.58929 2.58928 2.05357 3.30357 1.76785C4.33928 1.33929 6.83927 1.44643 8.01785 1.44643C9.1607 1.44643 11.6607 1.33929 12.7321 1.76785C13.4107 2.01786 13.9464 2.58929 14.2321 3.26786C14.6607 4.33928 14.5536 6.83928 14.5536 7.98213C14.5536 9.16071 14.6607 11.6607 14.2321 12.6964Z" fill="#FECE00"/>
</svg>
